<svg version="1.1" viewBox="0.0 0.0 960.0 540.0" fill="none" stroke="none" stroke-linecap="square" stroke-miterlimit="10" xmlns:xlink="http://www.w3.org/1999/xlink" xmlns="http://www.w3.org/2000/svg"><clipPath id="g2f20afe45c5_0_25.0"><path d="m0 0l960.0 0l0 540.0l-960.0 0l0 -540.0z" clip-rule="nonzero"/></clipPath><g clip-path="url(#g2f20afe45c5_0_25.0)"><path fill="#ffffff" d="m0 0l960.0 0l0 540.0l-960.0 0z" fill-rule="evenodd"/><path fill="#eeeeee" d="m170.29396 107.25328l106.645676 0l0 48.472443l-106.645676 0z" fill-rule="evenodd"/><path fill="#000000" d="m184.09084 142.93391l0 -20.625008l7.109375 0l0 1.859375l-4.421875 0l0 16.906258l4.421875 0l0 1.859375l-7.109375 0zm16.806213 -3.359375q-1.75 0 -3.078125 -0.921875q-1.3125 -0.921875 -2.046875 -2.6875q-0.734375 -1.78125 -0.734375 -4.359375q0 -3.9062576 1.609375 -5.8750076q1.609375 -1.96875 4.25 -1.96875q2.65625 0 4.25 1.96875q1.609375 1.96875 1.609375 5.8750076q0 2.578125 -0.734375 4.359375q-0.734375 1.765625 -2.046875 2.6875q-1.3125 0.921875 -3.078125 0.921875zm0 -2.734375q0.765625 0 1.375 -0.46875q0.609375 -0.484375 0.96875 -1.640625q0.359375 -1.15625 0.359375 -3.125q0 -1.984375 -0.359375 -3.09375q-0.359375 -1.1250076 -0.96875 -1.5625076q-0.609375 -0.453125 -1.375 -0.453125q-0.75 0 -1.375 0.453125q-0.625 0.4375 -0.984375 1.5625076q-0.359375 1.109375 -0.359375 3.09375q0 1.96875 0.359375 3.125q0.359375 1.15625 0.984375 1.640625q0.625 0.46875 1.375 0.46875zm0 -3.453125q-0.75 0 -1.28125 -0.5q-0.515625 -0.5 -0.515625 -1.328125q0 -0.828125 0.515625 -1.3125q0.53125 -0.5 1.28125 -0.5q0.765625 0 1.28125 0.5q0.515625 0.484375 0.515625 1.3125q0 0.828125 -0.515625 1.328125q-0.515625 0.5 -1.28125 0.5zm14.399963 6.1875q-1.75 0 -3.078125 -0.921875q-1.3125 -0.921875 -2.046875 -2.6875q-0.734375 -1.78125 -0.734375 -4.359375q0 -3.9062576 1.609375 -5.8750076q1.609375 -1.96875 4.25 -1.96875q2.65625 0 4.25 1.96875q1.609375 1.96875 1.609375 5.8750076q0 2.578125 -0.734375 4.359375q-0.734375 1.765625 -2.046875 2.6875q-1.3125 0.921875 -3.078125 0.921875zm0 -2.734375q0.765625 0 1.375 -0.46875q0.609375 -0.484375 0.96875 -1.640625q0.359375 -1.15625 0.359375 -3.125q0 -1.984375 -0.359375 -3.09375q-0.359375 -1.1250076 -0.96875 -1.5625076q-0.609375 -0.453125 -1.375 -0.453125q-0.75 0 -1.375 0.453125q-0.625 0.4375 -0.984375 1.5625076q-0.359375 1.109375 -0.359375 3.09375q0 1.96875 0.359375 3.125q0.359375 1.15625 0.984375 1.640625q0.625 0.46875 1.375 0.46875zm0 -3.453125q-0.75 0 -1.28125 -0.5q-0.515625 -0.5 -0.515625 -1.328125q0 -0.828125 0.515625 -1.3125q0.53125 -0.5 1.28125 -0.5q0.765625 0 1.28125 0.5q0.515625 0.484375 0.515625 1.3125q0 0.828125 -0.515625 1.328125q-0.515625 0.5 -1.28125 0.5zm14.399963 6.1875q-1.75 0 -3.078125 -0.921875q-1.3125 -0.921875 -2.046875 -2.6875q-0.734375 -1.78125 -0.734375 -4.359375q0 -3.9062576 1.609375 -5.8750076q1.609375 -1.96875 4.25 -1.96875q2.65625 0 4.25 1.96875q1.609375 1.96875 1.609375 5.8750076q0 2.578125 -0.734375 4.359375q-0.734375 1.765625 -2.046875 2.6875q-1.3125 0.921875 -3.078125 0.921875zm0 -2.734375q0.765625 0 1.375 -0.46875q0.609375 -0.484375 0.96875 -1.640625q0.359375 -1.15625 0.359375 -3.125q0 -1.984375 -0.359375 -3.09375q-0.359375 -1.1250076 -0.96875 -1.5625076q-0.609375 -0.453125 -1.375 -0.453125q-0.75 0 -1.375 0.453125q-0.625 0.4375 -0.984375 1.5625076q-0.359375 1.109375 -0.359375 3.09375q0 1.96875 0.359375 3.125q0.359375 1.15625 0.984375 1.640625q0.625 0.46875 1.375 0.46875zm0 -3.453125q-0.75 0 -1.28125 -0.5q-0.515625 -0.5 -0.515625 -1.328125q0 -0.828125 0.515625 -1.3125q0.53125 -0.5 1.28125 -0.5q0.765625 0 1.28125 0.5q0.515625 0.484375 0.515625 1.3125q0 0.828125 -0.515625 1.328125q-0.515625 0.5 -1.28125 0.5zm14.399963 6.1875q-1.75 0 -3.078125 -0.921875q-1.3125 -0.921875 -2.046875 -2.6875q-0.734375 -1.78125 -0.734375 -4.359375q0 -3.9062576 1.609375 -5.8750076q1.609375 -1.96875 4.25 -1.96875q2.65625 0 4.25 1.96875q1.609375 1.96875 1.609375 5.8750076q0 2.578125 -0.734375 4.359375q-0.734375 1.765625 -2.046875 2.6875q-1.3125 0.921875 -3.078125 0.921875zm0 -2.734375q0.765625 0 1.375 -0.46875q0.609375 -0.484375 0.96875 -1.640625q0.359375 -1.15625 0.359375 -3.125q0 -1.984375 -0.359375 -3.09375q-0.359375 -1.1250076 -0.96875 -1.5625076q-0.609375 -0.453125 -1.375 -0.453125q-0.75 0 -1.375 0.453125q-0.625 0.4375 -0.984375 1.5625076q-0.359375 1.109375 -0.359375 3.09375q0 1.96875 0.359375 3.125q0.359375 1.15625 0.984375 1.640625q0.625 0.46875 1.375 0.46875zm0 -3.453125q-0.75 0 -1.28125 -0.5q-0.515625 -0.5 -0.515625 -1.328125q0 -0.828125 0.515625 -1.3125q0.53125 -0.5 1.28125 -0.5q0.765625 0 1.28125 0.5q0.515625 0.484375 0.515625 1.3125q0 0.828125 -0.515625 1.328125q-0.515625 0.5 -1.28125 0.5zm9.696838 9.546875l0 -1.859375l4.4062653 0l0 -16.906258l-4.4062653 0l0 -1.859375l7.0937653 0l0 20.625008l-7.0937653 0z" fill-rule="nonzero"/><path fill="#eeeeee" d="m341.2152 107.25328l106.64569 0l0 48.472443l-106.64569 0z" fill-rule="evenodd"/><path stroke="#6aa84f" stroke-width="3.0" stroke-linejoin="round" stroke-linecap="butt" d="m341.2152 107.25328l106.64569 0l0 48.472443l-106.64569 0z" fill-rule="evenodd"/><path fill="#000000" d="m355.0121 142.93391l0 -20.625008l7.109375 0l0 1.859375l-4.421875 0l0 16.906258l4.421875 0l0 1.859375l-7.109375 0zm16.806213 -3.359375q-1.75 0 -3.078125 -0.921875q-1.3125 -0.921875 -2.046875 -2.6875q-0.734375 -1.78125 -0.734375 -4.359375q0 -3.9062576 1.609375 -5.8750076q1.609375 -1.96875 4.25 -1.96875q2.65625 0 4.25 1.96875q1.609375 1.96875 1.609375 5.8750076q0 2.578125 -0.734375 4.359375q-0.734375 1.765625 -2.046875 2.6875q-1.3125 0.921875 -3.078125 0.921875zm0 -2.734375q0.765625 0 1.375 -0.46875q0.609375 -0.484375 0.96875 -1.640625q0.359375 -1.15625 0.359375 -3.125q0 -1.984375 -0.359375 -3.09375q-0.359375 -1.1250076 -0.96875 -1.5625076q-0.609375 -0.453125 -1.375 -0.453125q-0.75 0 -1.375 0.453125q-0.625 0.4375 -0.984375 1.5625076q-0.359375 1.109375 -0.359375 3.09375q0 1.96875 0.359375 3.125q0.359375 1.15625 0.984375 1.640625q0.625 0.46875 1.375 0.46875zm0 -3.453125q-0.75 0 -1.28125 -0.5q-0.515625 -0.5 -0.515625 -1.328125q0 -0.828125 0.515625 -1.3125q0.53125 -0.5 1.28125 -0.5q0.765625 0 1.28125 0.5q0.515625 0.484375 0.515625 1.3125q0 0.828125 -0.515625 1.328125q-0.515625 0.5 -1.28125 0.5zm14.399963 6.1875q-1.75 0 -3.078125 -0.921875q-1.3125 -0.921875 -2.046875 -2.6875q-0.734375 -1.78125 -0.734375 -4.359375q0 -3.9062576 1.609375 -5.8750076q1.609375 -1.96875 4.25 -1.96875q2.65625 0 4.25 1.96875q1.609375 1.96875 1.609375 5.8750076q0 2.578125 -0.734375 4.359375q-0.734375 1.765625 -2.046875 2.6875q-1.3125 0.921875 -3.078125 0.921875zm0 -2.734375q0.765625 0 1.375 -0.46875q0.609375 -0.484375 0.96875 -1.640625q0.359375 -1.15625 0.359375 -3.125q0 -1.984375 -0.359375 -3.09375q-0.359375 -1.1250076 -0.96875 -1.5625076q-0.609375 -0.453125 -1.375 -0.453125q-0.75 0 -1.375 0.453125q-0.625 0.4375 -0.984375 1.5625076q-0.359375 1.109375 -0.359375 3.09375q0 1.96875 0.359375 3.125q0.359375 1.15625 0.984375 1.640625q0.625 0.46875 1.375 0.46875zm0 -3.453125q-0.75 0 -1.28125 -0.5q-0.515625 -0.5 -0.515625 -1.328125q0 -0.828125 0.515625 -1.3125q0.53125 -0.5 1.28125 -0.5q0.765625 0 1.28125 0.5q0.515625 0.484375 0.515625 1.3125q0 0.828125 -0.515625 1.328125q-0.515625 0.5 -1.28125 0.5zm14.399963 6.1875q-1.75 0 -3.078125 -0.921875q-1.3125 -0.921875 -2.046875 -2.6875q-0.734375 -1.78125 -0.734375 -4.359375q0 -3.9062576 1.609375 -5.8750076q1.609375 -1.96875 4.25 -1.96875q2.65625 0 4.25 1.96875q1.609375 1.96875 1.609375 5.8750076q0 2.578125 -0.734375 4.359375q-0.734375 1.765625 -2.046875 2.6875q-1.3125 0.921875 -3.078125 0.921875zm0 -2.734375q0.765625 0 1.375 -0.46875q0.609375 -0.484375 0.96875 -1.640625q0.359375 -1.15625 0.359375 -3.125q0 -1.984375 -0.359375 -3.09375q-0.359375 -1.1250076 -0.96875 -1.5625076q-0.609375 -0.453125 -1.375 -0.453125q-0.75 0 -1.375 0.453125q-0.625 0.4375 -0.984375 1.5625076q-0.359375 1.109375 -0.359375 3.09375q0 1.96875 0.359375 3.125q0.359375 1.15625 0.984375 1.640625q0.625 0.46875 1.375 0.46875zm0 -3.453125q-0.75 0 -1.28125 -0.5q-0.515625 -0.5 -0.515625 -1.328125q0 -0.828125 0.515625 -1.3125q0.53125 -0.5 1.28125 -0.5q0.765625 0 1.28125 0.5q0.515625 0.484375 0.515625 1.3125q0 0.828125 -0.515625 1.328125q-0.515625 0.5 -1.28125 0.5zm9.087463 5.90625l0 -2.859375l4.109375 0l0 -8.796883l-3.390625 0l0 -2.1875q1.03125 -0.171875 1.78125 -0.34375q0.765625 -0.1875 1.359375 -0.4375q0.609375 -0.25 1.1875 -0.609375l2.59375 0l0 12.375008l3.453125 0l0 2.859375l-11.09375 0zm15.009338 3.640625l0 -1.859375l4.40625 0l0 -16.906258l-4.40625 0l0 -1.859375l7.09375 0l0 20.625008l-7.09375 0z" fill-rule="nonzero"/><path fill="#eeeeee" d="m512.1365 107.25328l106.64569 0l0 48.472443l-106.64569 0z" fill-rule="evenodd"/><path stroke="#6aa84f" stroke-width="3.0" stroke-linejoin="round" stroke-linecap="butt" d="m512.1365 107.25328l106.64569 0l0 48.472443l-106.64569 0z" fill-rule="evenodd"/><path fill="#000000" d="m525.93335 142.93391l0 -20.625008l7.109375 0l0 1.859375l-4.421875 0l0 16.906258l4.421875 0l0 1.859375l-7.109375 0zm16.806213 -3.359375q-1.75 0 -3.078125 -0.921875q-1.3125 -0.921875 -2.046875 -2.6875q-0.734375 -1.78125 -0.734375 -4.359375q0 -3.9062576 1.609375 -5.8750076q1.609375 -1.96875 4.25 -1.96875q2.65625 0 4.25 1.96875q1.609375 1.96875 1.609375 5.8750076q0 2.578125 -0.734375 4.359375q-0.734375 1.765625 -2.046875 2.6875q-1.3125 0.921875 -3.078125 0.921875zm0 -2.734375q0.765625 0 1.375 -0.46875q0.609375 -0.484375 0.96875 -1.640625q0.359375 -1.15625 0.359375 -3.125q0 -1.984375 -0.359375 -3.09375q-0.359375 -1.1250076 -0.96875 -1.5625076q-0.609375 -0.453125 -1.375 -0.453125q-0.75 0 -1.375 0.453125q-0.625 0.4375 -0.984375 1.5625076q-0.359375 1.109375 -0.359375 3.09375q0 1.96875 0.359375 3.125q0.359375 1.15625 0.984375 1.640625q0.625 0.46875 1.375 0.46875zm0 -3.453125q-0.75 0 -1.28125 -0.5q-0.515625 -0.5 -0.515625 -1.328125q0 -0.828125 0.515625 -1.3125q0.53125 -0.5 1.28125 -0.5q0.765625 0 1.28125 0.5q0.515625 0.484375 0.515625 1.3125q0 0.828125 -0.515625 1.328125q-0.515625 0.5 -1.28125 0.5zm14.399963 6.1875q-1.75 0 -3.078125 -0.921875q-1.3125 -0.921875 -2.046875 -2.6875q-0.734375 -1.78125 -0.734375 -4.359375q0 -3.9062576 1.609375 -5.8750076q1.609375 -1.96875 4.25 -1.96875q2.65625 0 4.25 1.96875q1.609375 1.96875 1.609375 5.8750076q0 2.578125 -0.734375 4.359375q-0.734375 1.765625 -2.046875 2.6875q-1.3125 0.921875 -3.078125 0.921875zm0 -2.734375q0.765625 0 1.375 -0.46875q0.609375 -0.484375 0.96875 -1.640625q0.359375 -1.15625 0.359375 -3.125q0 -1.984375 -0.359375 -3.09375q-0.359375 -1.1250076 -0.96875 -1.5625076q-0.609375 -0.453125 -1.375 -0.453125q-0.75 0 -1.375 0.453125q-0.625 0.4375 -0.984375 1.5625076q-0.359375 1.109375 -0.359375 3.09375q0 1.96875 0.359375 3.125q0.359375 1.15625 0.984375 1.640625q0.625 0.46875 1.375 0.46875zm0 -3.453125q-0.75 0 -1.28125 -0.5q-0.515625 -0.5 -0.515625 -1.328125q0 -0.828125 0.515625 -1.3125q0.53125 -0.5 1.28125 -0.5q0.765625 0 1.28125 0.5q0.515625 0.484375 0.515625 1.3125q0 0.828125 -0.515625 1.328125q-0.515625 0.5 -1.28125 0.5zm9.087463 5.90625l0 -2.859375l4.109375 0l0 -8.796883l-3.390625 0l0 -2.1875q1.03125 -0.171875 1.78125 -0.34375q0.765625 -0.1875 1.359375 -0.4375q0.609375 -0.25 1.1875 -0.609375l2.59375 0l0 12.375008l3.453125 0l0 2.859375l-11.09375 0zm19.712463 0.28125q-1.75 0 -3.078125 -0.921875q-1.3125 -0.921875 -2.046875 -2.6875q-0.734375 -1.78125 -0.734375 -4.359375q0 -3.9062576 1.609375 -5.8750076q1.609375 -1.96875 4.25 -1.96875q2.65625 0 4.25 1.96875q1.609375 1.96875 1.609375 5.8750076q0 2.578125 -0.734375 4.359375q-0.734375 1.765625 -2.046875 2.6875q-1.3125 0.921875 -3.078125 0.921875zm0 -2.734375q0.765625 0 1.375 -0.46875q0.609375 -0.484375 0.96875 -1.640625q0.359375 -1.15625 0.359375 -3.125q0 -1.984375 -0.359375 -3.09375q-0.359375 -1.1250076 -0.96875 -1.5625076q-0.609375 -0.453125 -1.375 -0.453125q-0.75 0 -1.375 0.453125q-0.625 0.4375 -0.984375 1.5625076q-0.359375 1.109375 -0.359375 3.09375q0 1.96875 0.359375 3.125q0.359375 1.15625 0.984375 1.640625q0.625 0.46875 1.375 0.46875zm0 -3.453125q-0.75 0 -1.28125 -0.5q-0.515625 -0.5 -0.515625 -1.328125q0 -0.828125 0.515625 -1.3125q0.53125 -0.5 1.28125 -0.5q0.765625 0 1.28125 0.5q0.515625 0.484375 0.515625 1.3125q0 0.828125 -0.515625 1.328125q-0.515625 0.5 -1.28125 0.5zm9.696838 9.546875l0 -1.859375l4.40625 0l0 -16.906258l-4.40625 0l0 -1.859375l7.09375 0l0 20.625008l-7.09375 0z" fill-rule="nonzero"/><path fill="#eeeeee" d="m683.05774 107.25328l106.64569 0l0 48.472443l-106.64569 0z" fill-rule="evenodd"/><path stroke="#cc0000" stroke-width="4.0" stroke-linejoin="round" stroke-linecap="butt" d="m683.05774 107.25328l106.64569 0l0 48.472443l-106.64569 0z" fill-rule="evenodd"/><path fill="#000000" d="m696.8546 142.93391l0 -20.625008l7.109375 0l0 1.859375l-4.421875 0l0 16.906258l4.421875 0l0 1.859375l-7.109375 0zm16.806213 -3.359375q-1.75 0 -3.078125 -0.921875q-1.3125 -0.921875 -2.046875 -2.6875q-0.734375 -1.78125 -0.734375 -4.359375q0 -3.9062576 1.609375 -5.8750076q1.609375 -1.96875 4.25 -1.96875q2.65625 0 4.25 1.96875q1.609375 1.96875 1.609375 5.8750076q0 2.578125 -0.734375 4.359375q-0.734375 1.765625 -2.046875 2.6875q-1.3125 0.921875 -3.078125 0.921875zm0 -2.734375q0.765625 0 1.375 -0.46875q0.609375 -0.484375 0.96875 -1.640625q0.359375 -1.15625 0.359375 -3.125q0 -1.984375 -0.359375 -3.09375q-0.359375 -1.1250076 -0.96875 -1.5625076q-0.609375 -0.453125 -1.375 -0.453125q-0.75 0 -1.375 0.453125q-0.625 0.4375 -0.984375 1.5625076q-0.359375 1.109375 -0.359375 3.09375q0 1.96875 0.359375 3.125q0.359375 1.15625 0.984375 1.640625q0.625 0.46875 1.375 0.46875zm0 -3.453125q-0.75 0 -1.28125 -0.5q-0.515625 -0.5 -0.515625 -1.328125q0 -0.828125 0.515625 -1.3125q0.53125 -0.5 1.28125 -0.5q0.765625 0 1.28125 0.5q0.515625 0.484375 0.515625 1.3125q0 0.828125 -0.515625 1.328125q-0.515625 0.5 -1.28125 0.5zm14.399963 6.1875q-1.75 0 -3.078125 -0.921875q-1.3125 -0.921875 -2.046875 -2.6875q-0.734375 -1.78125 -0.734375 -4.359375q0 -3.9062576 1.609375 -5.8750076q1.609375 -1.96875 4.25 -1.96875q2.65625 0 4.25 1.96875q1.609375 1.96875 1.609375 5.8750076q0 2.578125 -0.734375 4.359375q-0.734375 1.765625 -2.046875 2.6875q-1.3125 0.921875 -3.078125 0.921875zm0 -2.734375q0.765625 0 1.375 -0.46875q0.609375 -0.484375 0.96875 -1.640625q0.359375 -1.15625 0.359375 -3.125q0 -1.984375 -0.359375 -3.09375q-0.359375 -1.1250076 -0.96875 -1.5625076q-0.609375 -0.453125 -1.375 -0.453125q-0.75 0 -1.375 0.453125q-0.625 0.4375 -0.984375 1.5625076q-0.359375 1.109375 -0.359375 3.09375q0 1.96875 0.359375 3.125q0.359375 1.15625 0.984375 1.640625q0.625 0.46875 1.375 0.46875zm0 -3.453125q-0.75 0 -1.28125 -0.5q-0.515625 -0.5 -0.515625 -1.328125q0 -0.828125 0.515625 -1.3125q0.53125 -0.5 1.28125 -0.5q0.765625 0 1.28125 0.5q0.515625 0.484375 0.515625 1.3125q0 0.828125 -0.515625 1.328125q-0.515625 0.5 -1.28125 0.5zm9.087463 5.90625l0 -2.859375l4.109375 0l0 -8.796883l-3.390625 0l0 -2.1875q1.03125 -0.171875 1.78125 -0.34375q0.765625 -0.1875 1.359375 -0.4375q0.609375 -0.25 1.1875 -0.609375l2.59375 0l0 12.375008l3.453125 0l0 2.859375l-11.09375 0zm14.399963 0l0 -2.859375l4.109375 0l0 -8.796883l-3.390625 0l0 -2.1875q1.03125 -0.171875 1.78125 -0.34375q0.765625 -0.1875 1.359375 -0.4375q0.609375 -0.25 1.1875 -0.609375l2.59375 0l0 12.375008l3.453125 0l0 2.859375l-11.09375 0zm15.009338 3.640625l0 -1.859375l4.40625 0l0 -16.906258l-4.40625 0l0 -1.859375l7.09375 0l0 20.625008l-7.09375 0z" fill-rule="nonzero"/><path fill="#eeeeee" d="m170.29396 204.0853l106.645676 0l0 48.472443l-106.645676 0z" fill-rule="evenodd"/><path stroke="#cc0000" stroke-width="3.0" stroke-linejoin="round" stroke-linecap="butt" d="m170.29396 204.0853l106.645676 0l0 48.472443l-106.645676 0z" fill-rule="evenodd"/><path fill="#000000" d="m184.09084 239.76593l0 -20.625l7.109375 0l0 1.859375l-4.421875 0l0 16.90625l4.421875 0l0 1.859375l-7.109375 0zm16.806213 -3.359375q-1.75 0 -3.078125 -0.921875q-1.3125 -0.921875 -2.046875 -2.6875q-0.734375 -1.78125 -0.734375 -4.359375q0 -3.90625 1.609375 -5.875q1.609375 -1.96875 4.25 -1.96875q2.65625 0 4.25 1.96875q1.609375 1.96875 1.609375 5.875q0 2.578125 -0.734375 4.359375q-0.734375 1.765625 -2.046875 2.6875q-1.3125 0.921875 -3.078125 0.921875zm0 -2.734375q0.765625 0 1.375 -0.46875q0.609375 -0.484375 0.96875 -1.640625q0.359375 -1.15625 0.359375 -3.125q0 -1.984375 -0.359375 -3.09375q-0.359375 -1.125 -0.96875 -1.5625q-0.609375 -0.453125 -1.375 -0.453125q-0.75 0 -1.375 0.453125q-0.625 0.4375 -0.984375 1.5625q-0.359375 1.109375 -0.359375 3.09375q0 1.96875 0.359375 3.125q0.359375 1.15625 0.984375 1.640625q0.625 0.46875 1.375 0.46875zm0 -3.453125q-0.75 0 -1.28125 -0.5q-0.515625 -0.5 -0.515625 -1.328125q0 -0.828125 0.515625 -1.3125q0.53125 -0.5 1.28125 -0.5q0.765625 0 1.28125 0.5q0.515625 0.484375 0.515625 1.3125q0 0.828125 -0.515625 1.328125q-0.515625 0.5 -1.28125 0.5zm9.087463 5.90625l0 -2.859375l4.109375 0l0 -8.796875l-3.390625 0l0 -2.1875q1.03125 -0.171875 1.78125 -0.34375q0.765625 -0.1875 1.359375 -0.4375q0.609375 -0.25 1.1875 -0.609375l2.59375 0l0 12.375l3.453125 0l0 2.859375l-11.09375 0zm19.712463 0.28125q-1.75 0 -3.078125 -0.921875q-1.3125 -0.921875 -2.046875 -2.6875q-0.734375 -1.78125 -0.734375 -4.359375q0 -3.90625 1.609375 -5.875q1.609375 -1.96875 4.25 -1.96875q2.65625 0 4.25 1.96875q1.609375 1.96875 1.609375 5.875q0 2.578125 -0.734375 4.359375q-0.734375 1.765625 -2.046875 2.6875q-1.3125 0.921875 -3.078125 0.921875zm0 -2.734375q0.765625 0 1.375 -0.46875q0.609375 -0.484375 0.96875 -1.640625q0.359375 -1.15625 0.359375 -3.125q0 -1.984375 -0.359375 -3.09375q-0.359375 -1.125 -0.96875 -1.5625q-0.609375 -0.453125 -1.375 -0.453125q-0.75 0 -1.375 0.453125q-0.625 0.4375 -0.984375 1.5625q-0.359375 1.109375 -0.359375 3.09375q0 1.96875 0.359375 3.125q0.359375 1.15625 0.984375 1.640625q0.625 0.46875 1.375 0.46875zm0 -3.453125q-0.75 0 -1.28125 -0.5q-0.515625 -0.5 -0.515625 -1.328125q0 -0.828125 0.515625 -1.3125q0.53125 -0.5 1.28125 -0.5q0.765625 0 1.28125 0.5q0.515625 0.484375 0.515625 1.3125q0 0.828125 -0.515625 1.328125q-0.515625 0.5 -1.28125 0.5zm14.399963 6.1875q-1.75 0 -3.078125 -0.921875q-1.3125 -0.921875 -2.046875 -2.6875q-0.734375 -1.78125 -0.734375 -4.359375q0 -3.90625 1.609375 -5.875q1.609375 -1.96875 4.25 -1.96875q2.65625 0 4.25 1.96875q1.609375 1.96875 1.609375 5.875q0 2.578125 -0.734375 4.359375q-0.734375 1.765625 -2.046875 2.6875q-1.3125 0.921875 -3.078125 0.921875zm0 -2.734375q0.765625 0 1.375 -0.46875q0.609375 -0.484375 0.96875 -1.640625q0.359375 -1.15625 0.359375 -3.125q0 -1.984375 -0.359375 -3.09375q-0.359375 -1.125 -0.96875 -1.5625q-0.609375 -0.453125 -1.375 -0.453125q-0.75 0 -1.375 0.453125q-0.625 0.4375 -0.984375 1.5625q-0.359375 1.109375 -0.359375 3.09375q0 1.96875 0.359375 3.125q0.359375 1.15625 0.984375 1.640625q0.625 0.46875 1.375 0.46875zm0 -3.453125q-0.75 0 -1.28125 -0.5q-0.515625 -0.5 -0.515625 -1.328125q0 -0.828125 0.515625 -1.3125q0.53125 -0.5 1.28125 -0.5q0.765625 0 1.28125 0.5q0.515625 0.484375 0.515625 1.3125q0 0.828125 -0.515625 1.328125q-0.515625 0.5 -1.28125 0.5zm9.696838 9.546875l0 -1.859375l4.4062653 0l0 -16.90625l-4.4062653 0l0 -1.859375l7.0937653 0l0 20.625l-7.0937653 0z" fill-rule="nonzero"/><path fill="#eeeeee" d="m341.2152 204.0853l106.64569 0l0 48.472443l-106.64569 0z" fill-rule="evenodd"/><path stroke="#cc0000" stroke-width="3.0" stroke-linejoin="round" stroke-linecap="butt" d="m341.2152 204.0853l106.64569 0l0 48.472443l-106.64569 0z" fill-rule="evenodd"/><path fill="#000000" d="m355.0121 239.76593l0 -20.625l7.109375 0l0 1.859375l-4.421875 0l0 16.90625l4.421875 0l0 1.859375l-7.109375 0zm16.806213 -3.359375q-1.75 0 -3.078125 -0.921875q-1.3125 -0.921875 -2.046875 -2.6875q-0.734375 -1.78125 -0.734375 -4.359375q0 -3.90625 1.609375 -5.875q1.609375 -1.96875 4.25 -1.96875q2.65625 0 4.25 1.96875q1.609375 1.96875 1.609375 5.875q0 2.578125 -0.734375 4.359375q-0.734375 1.765625 -2.046875 2.6875q-1.3125 0.921875 -3.078125 0.921875zm0 -2.734375q0.765625 0 1.375 -0.46875q0.609375 -0.484375 0.96875 -1.640625q0.359375 -1.15625 0.359375 -3.125q0 -1.984375 -0.359375 -3.09375q-0.359375 -1.125 -0.96875 -1.5625q-0.609375 -0.453125 -1.375 -0.453125q-0.75 0 -1.375 0.453125q-0.625 0.4375 -0.984375 1.5625q-0.359375 1.109375 -0.359375 3.09375q0 1.96875 0.359375 3.125q0.359375 1.15625 0.984375 1.640625q0.625 0.46875 1.375 0.46875zm0 -3.453125q-0.75 0 -1.28125 -0.5q-0.515625 -0.5 -0.515625 -1.328125q0 -0.828125 0.515625 -1.3125q0.53125 -0.5 1.28125 -0.5q0.765625 0 1.28125 0.5q0.515625 0.484375 0.515625 1.3125q0 0.828125 -0.515625 1.328125q-0.515625 0.5 -1.28125 0.5zm9.087463 5.90625l0 -2.859375l4.109375 0l0 -8.796875l-3.390625 0l0 -2.1875q1.03125 -0.171875 1.78125 -0.34375q0.765625 -0.1875 1.359375 -0.4375q0.609375 -0.25 1.1875 -0.609375l2.59375 0l0 12.375l3.453125 0l0 2.859375l-11.09375 0zm19.712463 0.28125q-1.75 0 -3.078125 -0.921875q-1.3125 -0.921875 -2.046875 -2.6875q-0.734375 -1.78125 -0.734375 -4.359375q0 -3.90625 1.609375 -5.875q1.609375 -1.96875 4.25 -1.96875q2.65625 0 4.25 1.96875q1.609375 1.96875 1.609375 5.875q0 2.578125 -0.734375 4.359375q-0.734375 1.765625 -2.046875 2.6875q-1.3125 0.921875 -3.078125 0.921875zm0 -2.734375q0.765625 0 1.375 -0.46875q0.609375 -0.484375 0.96875 -1.640625q0.359375 -1.15625 0.359375 -3.125q0 -1.984375 -0.359375 -3.09375q-0.359375 -1.125 -0.96875 -1.5625q-0.609375 -0.453125 -1.375 -0.453125q-0.75 0 -1.375 0.453125q-0.625 0.4375 -0.984375 1.5625q-0.359375 1.109375 -0.359375 3.09375q0 1.96875 0.359375 3.125q0.359375 1.15625 0.984375 1.640625q0.625 0.46875 1.375 0.46875zm0 -3.453125q-0.75 0 -1.28125 -0.5q-0.515625 -0.5 -0.515625 -1.328125q0 -0.828125 0.515625 -1.3125q0.53125 -0.5 1.28125 -0.5q0.765625 0 1.28125 0.5q0.515625 0.484375 0.515625 1.3125q0 0.828125 -0.515625 1.328125q-0.515625 0.5 -1.28125 0.5zm9.087463 5.90625l0 -2.859375l4.109375 0l0 -8.796875l-3.390625 0l0 -2.1875q1.03125 -0.171875 1.78125 -0.34375q0.765625 -0.1875 1.359375 -0.4375q0.609375 -0.25 1.1875 -0.609375l2.59375 0l0 12.375l3.453125 0l0 2.859375l-11.09375 0zm15.009338 3.640625l0 -1.859375l4.40625 0l0 -16.90625l-4.40625 0l0 -1.859375l7.09375 0l0 20.625l-7.09375 0z" fill-rule="nonzero"/><path fill="#eeeeee" d="m512.1365 204.0853l106.64569 0l0 48.472443l-106.64569 0z" fill-rule="evenodd"/><path stroke="#cc0000" stroke-width="3.0" stroke-linejoin="round" stroke-linecap="butt" d="m512.1365 204.0853l106.64569 0l0 48.472443l-106.64569 0z" fill-rule="evenodd"/><path fill="#000000" d="m525.93335 239.76593l0 -20.625l7.109375 0l0 1.859375l-4.421875 0l0 16.90625l4.421875 0l0 1.859375l-7.109375 0zm16.806213 -3.359375q-1.75 0 -3.078125 -0.921875q-1.3125 -0.921875 -2.046875 -2.6875q-0.734375 -1.78125 -0.734375 -4.359375q0 -3.90625 1.609375 -5.875q1.609375 -1.96875 4.25 -1.96875q2.65625 0 4.25 1.96875q1.609375 1.96875 1.609375 5.875q0 2.578125 -0.734375 4.359375q-0.734375 1.765625 -2.046875 2.6875q-1.3125 0.921875 -3.078125 0.921875zm0 -2.734375q0.765625 0 1.375 -0.46875q0.609375 -0.484375 0.96875 -1.640625q0.359375 -1.15625 0.359375 -3.125q0 -1.984375 -0.359375 -3.09375q-0.359375 -1.125 -0.96875 -1.5625q-0.609375 -0.453125 -1.375 -0.453125q-0.75 0 -1.375 0.453125q-0.625 0.4375 -0.984375 1.5625q-0.359375 1.109375 -0.359375 3.09375q0 1.96875 0.359375 3.125q0.359375 1.15625 0.984375 1.640625q0.625 0.46875 1.375 0.46875zm0 -3.453125q-0.75 0 -1.28125 -0.5q-0.515625 -0.5 -0.515625 -1.328125q0 -0.828125 0.515625 -1.3125q0.53125 -0.5 1.28125 -0.5q0.765625 0 1.28125 0.5q0.515625 0.484375 0.515625 1.3125q0 0.828125 -0.515625 1.328125q-0.515625 0.5 -1.28125 0.5zm9.087463 5.90625l0 -2.859375l4.109375 0l0 -8.796875l-3.390625 0l0 -2.1875q1.03125 -0.171875 1.78125 -0.34375q0.765625 -0.1875 1.359375 -0.4375q0.609375 -0.25 1.1875 -0.609375l2.59375 0l0 12.375l3.453125 0l0 2.859375l-11.09375 0zm14.399963 0l0 -2.859375l4.109375 0l0 -8.796875l-3.390625 0l0 -2.1875q1.03125 -0.171875 1.78125 -0.34375q0.765625 -0.1875 1.359375 -0.4375q0.609375 -0.25 1.1875 -0.609375l2.59375 0l0 12.375l3.453125 0l0 2.859375l-11.09375 0zm19.712463 0.28125q-1.75 0 -3.078125 -0.921875q-1.3125 -0.921875 -2.046875 -2.6875q-0.734375 -1.78125 -0.734375 -4.359375q0 -3.90625 1.609375 -5.875q1.609375 -1.96875 4.25 -1.96875q2.65625 0 4.25 1.96875q1.609375 1.96875 1.609375 5.875q0 2.578125 -0.734375 4.359375q-0.734375 1.765625 -2.046875 2.6875q-1.3125 0.921875 -3.078125 0.921875zm0 -2.734375q0.765625 0 1.375 -0.46875q0.609375 -0.484375 0.96875 -1.640625q0.359375 -1.15625 0.359375 -3.125q0 -1.984375 -0.359375 -3.09375q-0.359375 -1.125 -0.96875 -1.5625q-0.609375 -0.453125 -1.375 -0.453125q-0.75 0 -1.375 0.453125q-0.625 0.4375 -0.984375 1.5625q-0.359375 1.109375 -0.359375 3.09375q0 1.96875 0.359375 3.125q0.359375 1.15625 0.984375 1.640625q0.625 0.46875 1.375 0.46875zm0 -3.453125q-0.75 0 -1.28125 -0.5q-0.515625 -0.5 -0.515625 -1.328125q0 -0.828125 0.515625 -1.3125q0.53125 -0.5 1.28125 -0.5q0.765625 0 1.28125 0.5q0.515625 0.484375 0.515625 1.3125q0 0.828125 -0.515625 1.328125q-0.515625 0.5 -1.28125 0.5zm9.696838 9.546875l0 -1.859375l4.40625 0l0 -16.90625l-4.40625 0l0 -1.859375l7.09375 0l0 20.625l-7.09375 0z" fill-rule="nonzero"/><path fill="#eeeeee" d="m683.05774 204.0853l106.64569 0l0 48.472443l-106.64569 0z" fill-rule="evenodd"/><path stroke="#cc0000" stroke-width="3.0" stroke-linejoin="round" stroke-linecap="butt" d="m683.05774 204.0853l106.64569 0l0 48.472443l-106.64569 0z" fill-rule="evenodd"/><path fill="#000000" d="m696.8546 239.76593l0 -20.625l7.109375 0l0 1.859375l-4.421875 0l0 16.90625l4.421875 0l0 1.859375l-7.109375 0zm16.806213 -3.359375q-1.75 0 -3.078125 -0.921875q-1.3125 -0.921875 -2.046875 -2.6875q-0.734375 -1.78125 -0.734375 -4.359375q0 -3.90625 1.609375 -5.875q1.609375 -1.96875 4.25 -1.96875q2.65625 0 4.25 1.96875q1.609375 1.96875 1.609375 5.875q0 2.578125 -0.734375 4.359375q-0.734375 1.765625 -2.046875 2.6875q-1.3125 0.921875 -3.078125 0.921875zm0 -2.734375q0.765625 0 1.375 -0.46875q0.609375 -0.484375 0.96875 -1.640625q0.359375 -1.15625 0.359375 -3.125q0 -1.984375 -0.359375 -3.09375q-0.359375 -1.125 -0.96875 -1.5625q-0.609375 -0.453125 -1.375 -0.453125q-0.75 0 -1.375 0.453125q-0.625 0.4375 -0.984375 1.5625q-0.359375 1.109375 -0.359375 3.09375q0 1.96875 0.359375 3.125q0.359375 1.15625 0.984375 1.640625q0.625 0.46875 1.375 0.46875zm0 -3.453125q-0.75 0 -1.28125 -0.5q-0.515625 -0.5 -0.515625 -1.328125q0 -0.828125 0.515625 -1.3125q0.53125 -0.5 1.28125 -0.5q0.765625 0 1.28125 0.5q0.515625 0.484375 0.515625 1.3125q0 0.828125 -0.515625 1.328125q-0.515625 0.5 -1.28125 0.5zm9.087463 5.90625l0 -2.859375l4.109375 0l0 -8.796875l-3.390625 0l0 -2.1875q1.03125 -0.171875 1.78125 -0.34375q0.765625 -0.1875 1.359375 -0.4375q0.609375 -0.25 1.1875 -0.609375l2.59375 0l0 12.375l3.453125 0l0 2.859375l-11.09375 0zm14.399963 0l0 -2.859375l4.109375 0l0 -8.796875l-3.390625 0l0 -2.1875q1.03125 -0.171875 1.78125 -0.34375q0.765625 -0.1875 1.359375 -0.4375q0.609375 -0.25 1.1875 -0.609375l2.59375 0l0 12.375l3.453125 0l0 2.859375l-11.09375 0zm14.399963 0l0 -2.859375l4.109375 0l0 -8.796875l-3.390625 0l0 -2.1875q1.03125 -0.171875 1.78125 -0.34375q0.765625 -0.1875 1.359375 -0.4375q0.609375 -0.25 1.1875 -0.609375l2.59375 0l0 12.375l3.453125 0l0 2.859375l-11.09375 0zm15.009338 3.640625l0 -1.859375l4.40625 0l0 -16.90625l-4.40625 0l0 -1.859375l7.09375 0l0 20.625l-7.09375 0z" fill-rule="nonzero"/><path fill="#eeeeee" d="m170.29396 294.17978l106.645676 0l0 48.472443l-106.645676 0z" fill-rule="evenodd"/><path stroke="#cc0000" stroke-width="3.0" stroke-linejoin="round" stroke-linecap="butt" d="m170.29396 294.17978l106.645676 0l0 48.472443l-106.645676 0z" fill-rule="evenodd"/><path fill="#000000" d="m184.09084 329.8604l0 -20.625l7.109375 0l0 1.859375l-4.421875 0l0 16.90625l4.421875 0l0 1.859375l-7.109375 0zm11.493713 -3.640625l0 -2.859375l4.109375 0l0 -8.796875l-3.390625 0l0 -2.1875q1.03125 -0.171875 1.78125 -0.34375q0.765625 -0.1875 1.359375 -0.4375q0.609375 -0.25 1.1875 -0.609375l2.59375 0l0 12.375l3.453125 0l0 2.859375l-11.09375 0zm19.712463 0.28125q-1.75 0 -3.078125 -0.921875q-1.3125 -0.921875 -2.046875 -2.6875q-0.734375 -1.78125 -0.734375 -4.359375q0 -3.90625 1.609375 -5.875q1.609375 -1.96875 4.25 -1.96875q2.65625 0 4.25 1.96875q1.609375 1.96875 1.609375 5.875q0 2.578125 -0.734375 4.359375q-0.734375 1.765625 -2.046875 2.6875q-1.3125 0.921875 -3.078125 0.921875zm0 -2.734375q0.765625 0 1.375 -0.46875q0.609375 -0.484375 0.96875 -1.640625q0.359375 -1.15625 0.359375 -3.125q0 -1.984375 -0.359375 -3.09375q-0.359375 -1.125 -0.96875 -1.5625q-0.609375 -0.453125 -1.375 -0.453125q-0.75 0 -1.375 0.453125q-0.625 0.4375 -0.984375 1.5625q-0.359375 1.109375 -0.359375 3.09375q0 1.96875 0.359375 3.125q0.359375 1.15625 0.984375 1.640625q0.625 0.46875 1.375 0.46875zm0 -3.453125q-0.75 0 -1.28125 -0.5q-0.515625 -0.5 -0.515625 -1.328125q0 -0.828125 0.515625 -1.3125q0.53125 -0.5 1.28125 -0.5q0.765625 0 1.28125 0.5q0.515625 0.484375 0.515625 1.3125q0 0.828125 -0.515625 1.328125q-0.515625 0.5 -1.28125 0.5zm14.399963 6.1875q-1.75 0 -3.078125 -0.921875q-1.3125 -0.921875 -2.046875 -2.6875q-0.734375 -1.78125 -0.734375 -4.359375q0 -3.90625 1.609375 -5.875q1.609375 -1.96875 4.25 -1.96875q2.65625 0 4.25 1.96875q1.609375 1.96875 1.609375 5.875q0 2.578125 -0.734375 4.359375q-0.734375 1.765625 -2.046875 2.6875q-1.3125 0.921875 -3.078125 0.921875zm0 -2.734375q0.765625 0 1.375 -0.46875q0.609375 -0.484375 0.96875 -1.640625q0.359375 -1.15625 0.359375 -3.125q0 -1.984375 -0.359375 -3.09375q-0.359375 -1.125 -0.96875 -1.5625q-0.609375 -0.453125 -1.375 -0.453125q-0.75 0 -1.375 0.453125q-0.625 0.4375 -0.984375 1.5625q-0.359375 1.109375 -0.359375 3.09375q0 1.96875 0.359375 3.125q0.359375 1.15625 0.984375 1.640625q0.625 0.46875 1.375 0.46875zm0 -3.453125q-0.75 0 -1.28125 -0.5q-0.515625 -0.5 -0.515625 -1.328125q0 -0.828125 0.515625 -1.3125q0.53125 -0.5 1.28125 -0.5q0.765625 0 1.28125 0.5q0.515625 0.484375 0.515625 1.3125q0 0.828125 -0.515625 1.328125q-0.515625 0.5 -1.28125 0.5zm14.399963 6.1875q-1.75 0 -3.078125 -0.921875q-1.3125 -0.921875 -2.046875 -2.6875q-0.734375 -1.78125 -0.734375 -4.359375q0 -3.90625 1.609375 -5.875q1.609375 -1.96875 4.25 -1.96875q2.65625 0 4.25 1.96875q1.609375 1.96875 1.609375 5.875q0 2.578125 -0.734375 4.359375q-0.734375 1.765625 -2.046875 2.6875q-1.3125 0.921875 -3.078125 0.921875zm0 -2.734375q0.765625 0 1.375 -0.46875q0.609375 -0.484375 0.96875 -1.640625q0.359375 -1.15625 0.359375 -3.125q0 -1.984375 -0.359375 -3.09375q-0.359375 -1.125 -0.96875 -1.5625q-0.609375 -0.453125 -1.375 -0.453125q-0.75 0 -1.375 0.453125q-0.625 0.4375 -0.984375 1.5625q-0.359375 1.109375 -0.359375 3.09375q0 1.96875 0.359375 3.125q0.359375 1.15625 0.984375 1.640625q0.625 0.46875 1.375 0.46875zm0 -3.453125q-0.75 0 -1.28125 -0.5q-0.515625 -0.5 -0.515625 -1.328125q0 -0.828125 0.515625 -1.3125q0.53125 -0.5 1.28125 -0.5q0.765625 0 1.28125 0.5q0.515625 0.484375 0.515625 1.3125q0 0.828125 -0.515625 1.328125q-0.515625 0.5 -1.28125 0.5zm9.696838 9.546875l0 -1.859375l4.4062653 0l0 -16.90625l-4.4062653 0l0 -1.859375l7.0937653 0l0 20.625l-7.0937653 0z" fill-rule="nonzero"/><path fill="#eeeeee" d="m341.2152 294.17978l106.64569 0l0 48.472443l-106.64569 0z" fill-rule="evenodd"/><path stroke="#6aa84f" stroke-width="3.0" stroke-linejoin="round" stroke-linecap="butt" d="m341.2152 294.17978l106.64569 0l0 48.472443l-106.64569 0z" fill-rule="evenodd"/><path fill="#000000" d="m355.0121 329.8604l0 -20.625l7.109375 0l0 1.859375l-4.421875 0l0 16.90625l4.421875 0l0 1.859375l-7.109375 0zm11.493713 -3.640625l0 -2.859375l4.109375 0l0 -8.796875l-3.390625 0l0 -2.1875q1.03125 -0.171875 1.78125 -0.34375q0.765625 -0.1875 1.359375 -0.4375q0.609375 -0.25 1.1875 -0.609375l2.59375 0l0 12.375l3.453125 0l0 2.859375l-11.09375 0zm19.712463 0.28125q-1.75 0 -3.078125 -0.921875q-1.3125 -0.921875 -2.046875 -2.6875q-0.734375 -1.78125 -0.734375 -4.359375q0 -3.90625 1.609375 -5.875q1.609375 -1.96875 4.25 -1.96875q2.65625 0 4.25 1.96875q1.609375 1.96875 1.609375 5.875q0 2.578125 -0.734375 4.359375q-0.734375 1.765625 -2.046875 2.6875q-1.3125 0.921875 -3.078125 0.921875zm0 -2.734375q0.765625 0 1.375 -0.46875q0.609375 -0.484375 0.96875 -1.640625q0.359375 -1.15625 0.359375 -3.125q0 -1.984375 -0.359375 -3.09375q-0.359375 -1.125 -0.96875 -1.5625q-0.609375 -0.453125 -1.375 -0.453125q-0.75 0 -1.375 0.453125q-0.625 0.4375 -0.984375 1.5625q-0.359375 1.109375 -0.359375 3.09375q0 1.96875 0.359375 3.125q0.359375 1.15625 0.984375 1.640625q0.625 0.46875 1.375 0.46875zm0 -3.453125q-0.75 0 -1.28125 -0.5q-0.515625 -0.5 -0.515625 -1.328125q0 -0.828125 0.515625 -1.3125q0.53125 -0.5 1.28125 -0.5q0.765625 0 1.28125 0.5q0.515625 0.484375 0.515625 1.3125q0 0.828125 -0.515625 1.328125q-0.515625 0.5 -1.28125 0.5zm14.399963 6.1875q-1.75 0 -3.078125 -0.921875q-1.3125 -0.921875 -2.046875 -2.6875q-0.734375 -1.78125 -0.734375 -4.359375q0 -3.90625 1.609375 -5.875q1.609375 -1.96875 4.25 -1.96875q2.65625 0 4.25 1.96875q1.609375 1.96875 1.609375 5.875q0 2.578125 -0.734375 4.359375q-0.734375 1.765625 -2.046875 2.6875q-1.3125 0.921875 -3.078125 0.921875zm0 -2.734375q0.765625 0 1.375 -0.46875q0.609375 -0.484375 0.96875 -1.640625q0.359375 -1.15625 0.359375 -3.125q0 -1.984375 -0.359375 -3.09375q-0.359375 -1.125 -0.96875 -1.5625q-0.609375 -0.453125 -1.375 -0.453125q-0.75 0 -1.375 0.453125q-0.625 0.4375 -0.984375 1.5625q-0.359375 1.109375 -0.359375 3.09375q0 1.96875 0.359375 3.125q0.359375 1.15625 0.984375 1.640625q0.625 0.46875 1.375 0.46875zm0 -3.453125q-0.75 0 -1.28125 -0.5q-0.515625 -0.5 -0.515625 -1.328125q0 -0.828125 0.515625 -1.3125q0.53125 -0.5 1.28125 -0.5q0.765625 0 1.28125 0.5q0.515625 0.484375 0.515625 1.3125q0 0.828125 -0.515625 1.328125q-0.515625 0.5 -1.28125 0.5zm9.087463 5.90625l0 -2.859375l4.109375 0l0 -8.796875l-3.390625 0l0 -2.1875q1.03125 -0.171875 1.78125 -0.34375q0.765625 -0.1875 1.359375 -0.4375q0.609375 -0.25 1.1875 -0.609375l2.59375 0l0 12.375l3.453125 0l0 2.859375l-11.09375 0zm15.009338 3.640625l0 -1.859375l4.40625 0l0 -16.90625l-4.40625 0l0 -1.859375l7.09375 0l0 20.625l-7.09375 0z" fill-rule="nonzero"/><path fill="#eeeeee" d="m512.1365 294.17978l106.64569 0l0 48.472443l-106.64569 0z" fill-rule="evenodd"/><path stroke="#cc0000" stroke-width="3.0" stroke-linejoin="round" stroke-linecap="butt" d="m512.1365 294.17978l106.64569 0l0 48.472443l-106.64569 0z" fill-rule="evenodd"/><path fill="#000000" d="m525.93335 329.8604l0 -20.625l7.109375 0l0 1.859375l-4.421875 0l0 16.90625l4.421875 0l0 1.859375l-7.109375 0zm11.493713 -3.640625l0 -2.859375l4.109375 0l0 -8.796875l-3.390625 0l0 -2.1875q1.03125 -0.171875 1.78125 -0.34375q0.765625 -0.1875 1.359375 -0.4375q0.609375 -0.25 1.1875 -0.609375l2.59375 0l0 12.375l3.453125 0l0 2.859375l-11.09375 0zm19.712463 0.28125q-1.75 0 -3.078125 -0.921875q-1.3125 -0.921875 -2.046875 -2.6875q-0.734375 -1.78125 -0.734375 -4.359375q0 -3.90625 1.609375 -5.875q1.609375 -1.96875 4.25 -1.96875q2.65625 0 4.25 1.96875q1.609375 1.96875 1.609375 5.875q0 2.578125 -0.734375 4.359375q-0.734375 1.765625 -2.046875 2.6875q-1.3125 0.921875 -3.078125 0.921875zm0 -2.734375q0.765625 0 1.375 -0.46875q0.609375 -0.484375 0.96875 -1.640625q0.359375 -1.15625 0.359375 -3.125q0 -1.984375 -0.359375 -3.09375q-0.359375 -1.125 -0.96875 -1.5625q-0.609375 -0.453125 -1.375 -0.453125q-0.75 0 -1.375 0.453125q-0.625 0.4375 -0.984375 1.5625q-0.359375 1.109375 -0.359375 3.09375q0 1.96875 0.359375 3.125q0.359375 1.15625 0.984375 1.640625q0.625 0.46875 1.375 0.46875zm0 -3.453125q-0.75 0 -1.28125 -0.5q-0.515625 -0.5 -0.515625 -1.328125q0 -0.828125 0.515625 -1.3125q0.53125 -0.5 1.28125 -0.5q0.765625 0 1.28125 0.5q0.515625 0.484375 0.515625 1.3125q0 0.828125 -0.515625 1.328125q-0.515625 0.5 -1.28125 0.5zm9.087463 5.90625l0 -2.859375l4.109375 0l0 -8.796875l-3.390625 0l0 -2.1875q1.03125 -0.171875 1.78125 -0.34375q0.765625 -0.1875 1.359375 -0.4375q0.609375 -0.25 1.1875 -0.609375l2.59375 0l0 12.375l3.453125 0l0 2.859375l-11.09375 0zm19.712463 0.28125q-1.75 0 -3.078125 -0.921875q-1.3125 -0.921875 -2.046875 -2.6875q-0.734375 -1.78125 -0.734375 -4.359375q0 -3.90625 1.609375 -5.875q1.609375 -1.96875 4.25 -1.96875q2.65625 0 4.25 1.96875q1.609375 1.96875 1.609375 5.875q0 2.578125 -0.734375 4.359375q-0.734375 1.765625 -2.046875 2.6875q-1.3125 0.921875 -3.078125 0.921875zm0 -2.734375q0.765625 0 1.375 -0.46875q0.609375 -0.484375 0.96875 -1.640625q0.359375 -1.15625 0.359375 -3.125q0 -1.984375 -0.359375 -3.09375q-0.359375 -1.125 -0.96875 -1.5625q-0.609375 -0.453125 -1.375 -0.453125q-0.75 0 -1.375 0.453125q-0.625 0.4375 -0.984375 1.5625q-0.359375 1.109375 -0.359375 3.09375q0 1.96875 0.359375 3.125q0.359375 1.15625 0.984375 1.640625q0.625 0.46875 1.375 0.46875zm0 -3.453125q-0.75 0 -1.28125 -0.5q-0.515625 -0.5 -0.515625 -1.328125q0 -0.828125 0.515625 -1.3125q0.53125 -0.5 1.28125 -0.5q0.765625 0 1.28125 0.5q0.515625 0.484375 0.515625 1.3125q0 0.828125 -0.515625 1.328125q-0.515625 0.5 -1.28125 0.5zm9.696838 9.546875l0 -1.859375l4.40625 0l0 -16.90625l-4.40625 0l0 -1.859375l7.09375 0l0 20.625l-7.09375 0z" fill-rule="nonzero"/><path fill="#eeeeee" d="m683.05774 294.17978l106.64569 0l0 48.472443l-106.64569 0z" fill-rule="evenodd"/><path stroke="#6aa84f" stroke-width="3.0" stroke-linejoin="round" stroke-linecap="butt" d="m683.05774 294.17978l106.64569 0l0 48.472443l-106.64569 0z" fill-rule="evenodd"/><path fill="#000000" d="m696.8546 329.8604l0 -20.625l7.109375 0l0 1.859375l-4.421875 0l0 16.90625l4.421875 0l0 1.859375l-7.109375 0zm11.493713 -3.640625l0 -2.859375l4.109375 0l0 -8.796875l-3.390625 0l0 -2.1875q1.03125 -0.171875 1.78125 -0.34375q0.765625 -0.1875 1.359375 -0.4375q0.609375 -0.25 1.1875 -0.609375l2.59375 0l0 12.375l3.453125 0l0 2.859375l-11.09375 0zm19.712463 0.28125q-1.75 0 -3.078125 -0.921875q-1.3125 -0.921875 -2.046875 -2.6875q-0.734375 -1.78125 -0.734375 -4.359375q0 -3.90625 1.609375 -5.875q1.609375 -1.96875 4.25 -1.96875q2.65625 0 4.25 1.96875q1.609375 1.96875 1.609375 5.875q0 2.578125 -0.734375 4.359375q-0.734375 1.765625 -2.046875 2.6875q-1.3125 0.921875 -3.078125 0.921875zm0 -2.734375q0.765625 0 1.375 -0.46875q0.609375 -0.484375 0.96875 -1.640625q0.359375 -1.15625 0.359375 -3.125q0 -1.984375 -0.359375 -3.09375q-0.359375 -1.125 -0.96875 -1.5625q-0.609375 -0.453125 -1.375 -0.453125q-0.75 0 -1.375 0.453125q-0.625 0.4375 -0.984375 1.5625q-0.359375 1.109375 -0.359375 3.09375q0 1.96875 0.359375 3.125q0.359375 1.15625 0.984375 1.640625q0.625 0.46875 1.375 0.46875zm0 -3.453125q-0.75 0 -1.28125 -0.5q-0.515625 -0.5 -0.515625 -1.328125q0 -0.828125 0.515625 -1.3125q0.53125 -0.5 1.28125 -0.5q0.765625 0 1.28125 0.5q0.515625 0.484375 0.515625 1.3125q0 0.828125 -0.515625 1.328125q-0.515625 0.5 -1.28125 0.5zm9.087463 5.90625l0 -2.859375l4.109375 0l0 -8.796875l-3.390625 0l0 -2.1875q1.03125 -0.171875 1.78125 -0.34375q0.765625 -0.1875 1.359375 -0.4375q0.609375 -0.25 1.1875 -0.609375l2.59375 0l0 12.375l3.453125 0l0 2.859375l-11.09375 0zm14.399963 0l0 -2.859375l4.109375 0l0 -8.796875l-3.390625 0l0 -2.1875q1.03125 -0.171875 1.78125 -0.34375q0.765625 -0.1875 1.359375 -0.4375q0.609375 -0.25 1.1875 -0.609375l2.59375 0l0 12.375l3.453125 0l0 2.859375l-11.09375 0zm15.009338 3.640625l0 -1.859375l4.40625 0l0 -16.90625l-4.40625 0l0 -1.859375l7.09375 0l0 20.625l-7.09375 0z" fill-rule="nonzero"/><path fill="#eeeeee" d="m170.29396 384.2743l106.645676 0l0 48.472412l-106.645676 0z" fill-rule="evenodd"/><path stroke="#6aa84f" stroke-width="8.0" stroke-linejoin="round" stroke-linecap="butt" d="m170.29396 384.2743l106.645676 0l0 48.472412l-106.645676 0z" fill-rule="evenodd"/><path fill="#000000" d="m184.09084 419.9549l0 -20.625l7.109375 0l0 1.859375l-4.421875 0l0 16.90625l4.421875 0l0 1.859375l-7.109375 0zm11.493713 -3.640625l0 -2.859375l4.109375 0l0 -8.796875l-3.390625 0l0 -2.1875q1.03125 -0.171875 1.78125 -0.34375q0.765625 -0.1875 1.359375 -0.4375q0.609375 -0.25 1.1875 -0.609375l2.59375 0l0 12.375l3.453125 0l0 2.859375l-11.09375 0zm14.399963 0l0 -2.859375l4.109375 0l0 -8.796875l-3.390625 0l0 -2.1875q1.03125 -0.171875 1.78125 -0.34375q0.765625 -0.1875 1.359375 -0.4375q0.609375 -0.25 1.1875 -0.609375l2.59375 0l0 12.375l3.453125 0l0 2.859375l-11.09375 0zm19.712463 0.28125q-1.75 0 -3.078125 -0.921875q-1.3125 -0.921875 -2.046875 -2.6875q-0.734375 -1.78125 -0.734375 -4.359375q0 -3.90625 1.609375 -5.875q1.609375 -1.96875 4.25 -1.96875q2.65625 0 4.25 1.96875q1.609375 1.96875 1.609375 5.875q0 2.578125 -0.734375 4.359375q-0.734375 1.765625 -2.046875 2.6875q-1.3125 0.921875 -3.078125 0.921875zm0 -2.734375q0.765625 0 1.375 -0.46875q0.609375 -0.484375 0.96875 -1.640625q0.359375 -1.15625 0.359375 -3.125q0 -1.984375 -0.359375 -3.09375q-0.359375 -1.125 -0.96875 -1.5625q-0.609375 -0.453125 -1.375 -0.453125q-0.75 0 -1.375 0.453125q-0.625 0.4375 -0.984375 1.5625q-0.359375 1.109375 -0.359375 3.09375q0 1.96875 0.359375 3.125q0.359375 1.15625 0.984375 1.640625q0.625 0.46875 1.375 0.46875zm0 -3.453125q-0.75 0 -1.28125 -0.5q-0.515625 -0.5 -0.515625 -1.328125q0 -0.828125 0.515625 -1.3125q0.53125 -0.5 1.28125 -0.5q0.765625 0 1.28125 0.5q0.515625 0.484375 0.515625 1.3125q0 0.828125 -0.515625 1.328125q-0.515625 0.5 -1.28125 0.5zm14.399963 6.1875q-1.75 0 -3.078125 -0.921875q-1.3125 -0.921875 -2.046875 -2.6875q-0.734375 -1.78125 -0.734375 -4.359375q0 -3.90625 1.609375 -5.875q1.609375 -1.96875 4.25 -1.96875q2.65625 0 4.25 1.96875q1.609375 1.96875 1.609375 5.875q0 2.578125 -0.734375 4.359375q-0.734375 1.765625 -2.046875 2.6875q-1.3125 0.921875 -3.078125 0.921875zm0 -2.734375q0.765625 0 1.375 -0.46875q0.609375 -0.484375 0.96875 -1.640625q0.359375 -1.15625 0.359375 -3.125q0 -1.984375 -0.359375 -3.09375q-0.359375 -1.125 -0.96875 -1.5625q-0.609375 -0.453125 -1.375 -0.453125q-0.75 0 -1.375 0.453125q-0.625 0.4375 -0.984375 1.5625q-0.359375 1.109375 -0.359375 3.09375q0 1.96875 0.359375 3.125q0.359375 1.15625 0.984375 1.640625q0.625 0.46875 1.375 0.46875zm0 -3.453125q-0.75 0 -1.28125 -0.5q-0.515625 -0.5 -0.515625 -1.328125q0 -0.828125 0.515625 -1.3125q0.53125 -0.5 1.28125 -0.5q0.765625 0 1.28125 0.5q0.515625 0.484375 0.515625 1.3125q0 0.828125 -0.515625 1.328125q-0.515625 0.5 -1.28125 0.5zm9.696838 9.546875l0 -1.859375l4.4062653 0l0 -16.90625l-4.4062653 0l0 -1.859375l7.0937653 0l0 20.625l-7.0937653 0z" fill-rule="nonzero"/><path fill="#eeeeee" d="m341.2152 384.2743l106.64569 0l0 48.472412l-106.64569 0z" fill-rule="evenodd"/><path stroke="#cc0000" stroke-width="3.0" stroke-linejoin="round" stroke-linecap="butt" d="m341.2152 384.2743l106.64569 0l0 48.472412l-106.64569 0z" fill-rule="evenodd"/><path fill="#000000" d="m355.0121 419.9549l0 -20.625l7.109375 0l0 1.859375l-4.421875 0l0 16.90625l4.421875 0l0 1.859375l-7.109375 0zm11.493713 -3.640625l0 -2.859375l4.109375 0l0 -8.796875l-3.390625 0l0 -2.1875q1.03125 -0.171875 1.78125 -0.34375q0.765625 -0.1875 1.359375 -0.4375q0.609375 -0.25 1.1875 -0.609375l2.59375 0l0 12.375l3.453125 0l0 2.859375l-11.09375 0zm14.399963 0l0 -2.859375l4.109375 0l0 -8.796875l-3.390625 0l0 -2.1875q1.03125 -0.171875 1.78125 -0.34375q0.765625 -0.1875 1.359375 -0.4375q0.609375 -0.25 1.1875 -0.609375l2.59375 0l0 12.375l3.453125 0l0 2.859375l-11.09375 0zm19.712463 0.28125q-1.75 0 -3.078125 -0.921875q-1.3125 -0.921875 -2.046875 -2.6875q-0.734375 -1.78125 -0.734375 -4.359375q0 -3.90625 1.609375 -5.875q1.609375 -1.96875 4.25 -1.96875q2.65625 0 4.25 1.96875q1.609375 1.96875 1.609375 5.875q0 2.578125 -0.734375 4.359375q-0.734375 1.765625 -2.046875 2.6875q-1.3125 0.921875 -3.078125 0.921875zm0 -2.734375q0.765625 0 1.375 -0.46875q0.609375 -0.484375 0.96875 -1.640625q0.359375 -1.15625 0.359375 -3.125q0 -1.984375 -0.359375 -3.09375q-0.359375 -1.125 -0.96875 -1.5625q-0.609375 -0.453125 -1.375 -0.453125q-0.75 0 -1.375 0.453125q-0.625 0.4375 -0.984375 1.5625q-0.359375 1.109375 -0.359375 3.09375q0 1.96875 0.359375 3.125q0.359375 1.15625 0.984375 1.640625q0.625 0.46875 1.375 0.46875zm0 -3.453125q-0.75 0 -1.28125 -0.5q-0.515625 -0.5 -0.515625 -1.328125q0 -0.828125 0.515625 -1.3125q0.53125 -0.5 1.28125 -0.5q0.765625 0 1.28125 0.5q0.515625 0.484375 0.515625 1.3125q0 0.828125 -0.515625 1.328125q-0.515625 0.5 -1.28125 0.5zm9.087463 5.90625l0 -2.859375l4.109375 0l0 -8.796875l-3.390625 0l0 -2.1875q1.03125 -0.171875 1.78125 -0.34375q0.765625 -0.1875 1.359375 -0.4375q0.609375 -0.25 1.1875 -0.609375l2.59375 0l0 12.375l3.453125 0l0 2.859375l-11.09375 0zm15.009338 3.640625l0 -1.859375l4.40625 0l0 -16.90625l-4.40625 0l0 -1.859375l7.09375 0l0 20.625l-7.09375 0z" fill-rule="nonzero"/><path fill="#eeeeee" d="m512.1365 384.2743l106.64569 0l0 48.472412l-106.64569 0z" fill-rule="evenodd"/><path stroke="#6aa84f" stroke-width="3.0" stroke-linejoin="round" stroke-linecap="butt" d="m512.1365 384.2743l106.64569 0l0 48.472412l-106.64569 0z" fill-rule="evenodd"/><path fill="#000000" d="m525.93335 419.9549l0 -20.625l7.109375 0l0 1.859375l-4.421875 0l0 16.90625l4.421875 0l0 1.859375l-7.109375 0zm11.493713 -3.640625l0 -2.859375l4.109375 0l0 -8.796875l-3.390625 0l0 -2.1875q1.03125 -0.171875 1.78125 -0.34375q0.765625 -0.1875 1.359375 -0.4375q0.609375 -0.25 1.1875 -0.609375l2.59375 0l0 12.375l3.453125 0l0 2.859375l-11.09375 0zm14.399963 0l0 -2.859375l4.109375 0l0 -8.796875l-3.390625 0l0 -2.1875q1.03125 -0.171875 1.78125 -0.34375q0.765625 -0.1875 1.359375 -0.4375q0.609375 -0.25 1.1875 -0.609375l2.59375 0l0 12.375l3.453125 0l0 2.859375l-11.09375 0zm14.399963 0l0 -2.859375l4.109375 0l0 -8.796875l-3.390625 0l0 -2.1875q1.03125 -0.171875 1.78125 -0.34375q0.765625 -0.1875 1.359375 -0.4375q0.609375 -0.25 1.1875 -0.609375l2.59375 0l0 12.375l3.453125 0l0 2.859375l-11.09375 0zm19.712463 0.28125q-1.75 0 -3.078125 -0.921875q-1.3125 -0.921875 -2.046875 -2.6875q-0.734375 -1.78125 -0.734375 -4.359375q0 -3.90625 1.609375 -5.875q1.609375 -1.96875 4.25 -1.96875q2.65625 0 4.25 1.96875q1.609375 1.96875 1.609375 5.875q0 2.578125 -0.734375 4.359375q-0.734375 1.765625 -2.046875 2.6875q-1.3125 0.921875 -3.078125 0.921875zm0 -2.734375q0.765625 0 1.375 -0.46875q0.609375 -0.484375 0.96875 -1.640625q0.359375 -1.15625 0.359375 -3.125q0 -1.984375 -0.359375 -3.09375q-0.359375 -1.125 -0.96875 -1.5625q-0.609375 -0.453125 -1.375 -0.453125q-0.75 0 -1.375 0.453125q-0.625 0.4375 -0.984375 1.5625q-0.359375 1.109375 -0.359375 3.09375q0 1.96875 0.359375 3.125q0.359375 1.15625 0.984375 1.640625q0.625 0.46875 1.375 0.46875zm0 -3.453125q-0.75 0 -1.28125 -0.5q-0.515625 -0.5 -0.515625 -1.328125q0 -0.828125 0.515625 -1.3125q0.53125 -0.5 1.28125 -0.5q0.765625 0 1.28125 0.5q0.515625 0.484375 0.515625 1.3125q0 0.828125 -0.515625 1.328125q-0.515625 0.5 -1.28125 0.5zm9.696838 9.546875l0 -1.859375l4.40625 0l0 -16.90625l-4.40625 0l0 -1.859375l7.09375 0l0 20.625l-7.09375 0z" fill-rule="nonzero"/><path fill="#eeeeee" d="m683.05774 384.2743l106.64569 0l0 48.472412l-106.64569 0z" fill-rule="evenodd"/><path stroke="#cc0000" stroke-width="3.0" stroke-linejoin="round" stroke-linecap="butt" d="m683.05774 384.2743l106.64569 0l0 48.472412l-106.64569 0z" fill-rule="evenodd"/><path fill="#000000" d="m696.8546 419.9549l0 -20.625l7.109375 0l0 1.859375l-4.421875 0l0 16.90625l4.421875 0l0 1.859375l-7.109375 0zm11.493713 -3.640625l0 -2.859375l4.109375 0l0 -8.796875l-3.390625 0l0 -2.1875q1.03125 -0.171875 1.78125 -0.34375q0.765625 -0.1875 1.359375 -0.4375q0.609375 -0.25 1.1875 -0.609375l2.59375 0l0 12.375l3.453125 0l0 2.859375l-11.09375 0zm14.399963 0l0 -2.859375l4.109375 0l0 -8.796875l-3.390625 0l0 -2.1875q1.03125 -0.171875 1.78125 -0.34375q0.765625 -0.1875 1.359375 -0.4375q0.609375 -0.25 1.1875 -0.609375l2.59375 0l0 12.375l3.453125 0l0 2.859375l-11.09375 0zm14.399963 0l0 -2.859375l4.109375 0l0 -8.796875l-3.390625 0l0 -2.1875q1.03125 -0.171875 1.78125 -0.34375q0.765625 -0.1875 1.359375 -0.4375q0.609375 -0.25 1.1875 -0.609375l2.59375 0l0 12.375l3.453125 0l0 2.859375l-11.09375 0zm14.399963 0l0 -2.859375l4.109375 0l0 -8.796875l-3.390625 0l0 -2.1875q1.03125 -0.171875 1.78125 -0.34375q0.765625 -0.1875 1.359375 -0.4375q0.609375 -0.25 1.1875 -0.609375l2.59375 0l0 12.375l3.453125 0l0 2.859375l-11.09375 0zm15.009338 3.640625l0 -1.859375l4.40625 0l0 -16.90625l-4.40625 0l0 -1.859375l7.09375 0l0 20.625l-7.09375 0z" fill-rule="nonzero"/></g></svg>