<svg version="1.1" viewBox="0.0 0.0 960.0 540.0" fill="none" stroke="none" stroke-linecap="square" stroke-miterlimit="10" xmlns:xlink="http://www.w3.org/1999/xlink" xmlns="http://www.w3.org/2000/svg"><clipPath id="g2f30adbeb4a_0_0.0"><path d="m0 0l960.0 0l0 540.0l-960.0 0l0 -540.0z" clip-rule="nonzero"/></clipPath><g clip-path="url(#g2f30adbeb4a_0_0.0)"><path fill="#ffffff" d="m0 0l960.0 0l0 540.0l-960.0 0z" fill-rule="evenodd"/><path fill="#eeeeee" d="m458.67715 38.301838l106.64566 0l0 48.47244l-106.64566 0z" fill-rule="evenodd"/><path fill="#000000" d="m472.47403 73.98246l0 -20.624996l7.109375 0l0 1.859375l-4.421875 0l0 16.906246l4.421875 0l0 1.859375l-7.109375 0zm16.806213 -3.359375q-1.75 0 -3.078125 -0.921875q-1.3125 -0.921875 -2.046875 -2.6875q-0.734375 -1.78125 -0.734375 -4.359371q0 -3.90625 1.609375 -5.875q1.609375 -1.96875 4.25 -1.96875q2.65625 0 4.25 1.96875q1.609375 1.96875 1.609375 5.875q0 2.5781212 -0.734375 4.359371q-0.734375 1.765625 -2.046875 2.6875q-1.3125 0.921875 -3.078125 0.921875zm0 -2.734375q0.765625 0 1.375 -0.46875q0.609375 -0.484375 0.96875 -1.640625q0.359375 -1.15625 0.359375 -3.1249962q0 -1.984375 -0.359375 -3.09375q-0.359375 -1.125 -0.96875 -1.5625q-0.609375 -0.453125 -1.375 -0.453125q-0.75 0 -1.375 0.453125q-0.625 0.4375 -0.984375 1.5625q-0.359375 1.109375 -0.359375 3.09375q0 1.9687462 0.359375 3.1249962q0.359375 1.15625 0.984375 1.640625q0.625 0.46875 1.375 0.46875zm0 -3.453125q-0.75 0 -1.28125 -0.4999962q-0.515625 -0.5 -0.515625 -1.328125q0 -0.828125 0.515625 -1.3125q0.53125 -0.5 1.28125 -0.5q0.765625 0 1.28125 0.5q0.515625 0.484375 0.515625 1.3125q0 0.828125 -0.515625 1.328125q-0.515625 0.4999962 -1.28125 0.4999962zm14.399963 6.1875q-1.75 0 -3.078125 -0.921875q-1.3125 -0.921875 -2.046875 -2.6875q-0.734375 -1.78125 -0.734375 -4.359371q0 -3.90625 1.609375 -5.875q1.609375 -1.96875 4.25 -1.96875q2.65625 0 4.25 1.96875q1.609375 1.96875 1.609375 5.875q0 2.5781212 -0.734375 4.359371q-0.734375 1.765625 -2.046875 2.6875q-1.3125 0.921875 -3.078125 0.921875zm0 -2.734375q0.765625 0 1.375 -0.46875q0.609375 -0.484375 0.96875 -1.640625q0.359375 -1.15625 0.359375 -3.1249962q0 -1.984375 -0.359375 -3.09375q-0.359375 -1.125 -0.96875 -1.5625q-0.609375 -0.453125 -1.375 -0.453125q-0.75 0 -1.375 0.453125q-0.625 0.4375 -0.984375 1.5625q-0.359375 1.109375 -0.359375 3.09375q0 1.9687462 0.359375 3.1249962q0.359375 1.15625 0.984375 1.640625q0.625 0.46875 1.375 0.46875zm0 -3.453125q-0.75 0 -1.28125 -0.4999962q-0.515625 -0.5 -0.515625 -1.328125q0 -0.828125 0.515625 -1.3125q0.53125 -0.5 1.28125 -0.5q0.765625 0 1.28125 0.5q0.515625 0.484375 0.515625 1.3125q0 0.828125 -0.515625 1.328125q-0.515625 0.4999962 -1.28125 0.4999962zm14.399994 6.1875q-1.75 0 -3.078125 -0.921875q-1.3125 -0.921875 -2.046875 -2.6875q-0.734375 -1.78125 -0.734375 -4.359371q0 -3.90625 1.609375 -5.875q1.609375 -1.96875 4.25 -1.96875q2.65625 0 4.25 1.96875q1.609375 1.96875 1.609375 5.875q0 2.5781212 -0.734375 4.359371q-0.734375 1.765625 -2.046875 2.6875q-1.3125 0.921875 -3.078125 0.921875zm0 -2.734375q0.765625 0 1.375 -0.46875q0.609375 -0.484375 0.96875 -1.640625q0.359375 -1.15625 0.359375 -3.1249962q0 -1.984375 -0.359375 -3.09375q-0.359375 -1.125 -0.96875 -1.5625q-0.609375 -0.453125 -1.375 -0.453125q-0.75 0 -1.375 0.453125q-0.625 0.4375 -0.984375 1.5625q-0.359375 1.109375 -0.359375 3.09375q0 1.9687462 0.359375 3.1249962q0.359375 1.15625 0.984375 1.640625q0.625 0.46875 1.375 0.46875zm0 -3.453125q-0.75 0 -1.28125 -0.4999962q-0.515625 -0.5 -0.515625 -1.328125q0 -0.828125 0.515625 -1.3125q0.53125 -0.5 1.28125 -0.5q0.765625 0 1.28125 0.5q0.515625 0.484375 0.515625 1.3125q0 0.828125 -0.515625 1.328125q-0.515625 0.4999962 -1.28125 0.4999962zm14.399963 6.1875q-1.75 0 -3.078125 -0.921875q-1.3125 -0.921875 -2.046875 -2.6875q-0.734375 -1.78125 -0.734375 -4.359371q0 -3.90625 1.609375 -5.875q1.609375 -1.96875 4.25 -1.96875q2.65625 0 4.25 1.96875q1.609375 1.96875 1.609375 5.875q0 2.5781212 -0.734375 4.359371q-0.734375 1.765625 -2.046875 2.6875q-1.3125 0.921875 -3.078125 0.921875zm0 -2.734375q0.765625 0 1.375 -0.46875q0.609375 -0.484375 0.96875 -1.640625q0.359375 -1.15625 0.359375 -3.1249962q0 -1.984375 -0.359375 -3.09375q-0.359375 -1.125 -0.96875 -1.5625q-0.609375 -0.453125 -1.375 -0.453125q-0.75 0 -1.375 0.453125q-0.625 0.4375 -0.984375 1.5625q-0.359375 1.109375 -0.359375 3.09375q0 1.9687462 0.359375 3.1249962q0.359375 1.15625 0.984375 1.640625q0.625 0.46875 1.375 0.46875zm0 -3.453125q-0.75 0 -1.28125 -0.4999962q-0.515625 -0.5 -0.515625 -1.328125q0 -0.828125 0.515625 -1.3125q0.53125 -0.5 1.28125 -0.5q0.765625 0 1.28125 0.5q0.515625 0.484375 0.515625 1.3125q0 0.828125 -0.515625 1.328125q-0.515625 0.4999962 -1.28125 0.4999962zm9.696838 9.546875l0 -1.859375l4.40625 0l0 -16.906246l-4.40625 0l0 -1.859375l7.09375 0l0 20.624996l-7.09375 0z" fill-rule="nonzero"/><path fill="#eeeeee" d="m176.40683 121.238846l106.64566 0l0 48.472443l-106.64566 0z" fill-rule="evenodd"/><path stroke="#6aa84f" stroke-width="4.0" stroke-linejoin="round" stroke-linecap="butt" d="m176.40683 121.238846l106.64566 0l0 48.472443l-106.64566 0z" fill-rule="evenodd"/><path fill="#000000" d="m190.2037 156.91946l0 -20.625l7.109375 0l0 1.859375l-4.421875 0l0 16.90625l4.421875 0l0 1.859375l-7.109375 0zm16.806213 -3.359375q-1.75 0 -3.078125 -0.921875q-1.3125 -0.921875 -2.046875 -2.6875q-0.734375 -1.78125 -0.734375 -4.359375q0 -3.90625 1.609375 -5.875q1.609375 -1.96875 4.25 -1.96875q2.65625 0 4.25 1.96875q1.609375 1.96875 1.609375 5.875q0 2.578125 -0.734375 4.359375q-0.734375 1.765625 -2.046875 2.6875q-1.3125 0.921875 -3.078125 0.921875zm0 -2.734375q0.765625 0 1.375 -0.46875q0.609375 -0.484375 0.96875 -1.640625q0.359375 -1.15625 0.359375 -3.125q0 -1.984375 -0.359375 -3.09375q-0.359375 -1.125 -0.96875 -1.5625q-0.609375 -0.453125 -1.375 -0.453125q-0.75 0 -1.375 0.453125q-0.625 0.4375 -0.984375 1.5625q-0.359375 1.109375 -0.359375 3.09375q0 1.96875 0.359375 3.125q0.359375 1.15625 0.984375 1.640625q0.625 0.46875 1.375 0.46875zm0 -3.453125q-0.75 0 -1.28125 -0.5q-0.515625 -0.5 -0.515625 -1.328125q0 -0.828125 0.515625 -1.3125q0.53125 -0.5 1.28125 -0.5q0.765625 0 1.28125 0.5q0.515625 0.484375 0.515625 1.3125q0 0.828125 -0.515625 1.328125q-0.515625 0.5 -1.28125 0.5zm14.399963 6.1875q-1.75 0 -3.078125 -0.921875q-1.3125 -0.921875 -2.046875 -2.6875q-0.734375 -1.78125 -0.734375 -4.359375q0 -3.90625 1.609375 -5.875q1.609375 -1.96875 4.25 -1.96875q2.65625 0 4.25 1.96875q1.609375 1.96875 1.609375 5.875q0 2.578125 -0.734375 4.359375q-0.734375 1.765625 -2.046875 2.6875q-1.3125 0.921875 -3.078125 0.921875zm0 -2.734375q0.765625 0 1.375 -0.46875q0.609375 -0.484375 0.96875 -1.640625q0.359375 -1.15625 0.359375 -3.125q0 -1.984375 -0.359375 -3.09375q-0.359375 -1.125 -0.96875 -1.5625q-0.609375 -0.453125 -1.375 -0.453125q-0.75 0 -1.375 0.453125q-0.625 0.4375 -0.984375 1.5625q-0.359375 1.109375 -0.359375 3.09375q0 1.96875 0.359375 3.125q0.359375 1.15625 0.984375 1.640625q0.625 0.46875 1.375 0.46875zm0 -3.453125q-0.75 0 -1.28125 -0.5q-0.515625 -0.5 -0.515625 -1.328125q0 -0.828125 0.515625 -1.3125q0.53125 -0.5 1.28125 -0.5q0.765625 0 1.28125 0.5q0.515625 0.484375 0.515625 1.3125q0 0.828125 -0.515625 1.328125q-0.515625 0.5 -1.28125 0.5zm14.399963 6.1875q-1.75 0 -3.078125 -0.921875q-1.3125 -0.921875 -2.046875 -2.6875q-0.734375 -1.78125 -0.734375 -4.359375q0 -3.90625 1.609375 -5.875q1.609375 -1.96875 4.25 -1.96875q2.65625 0 4.25 1.96875q1.609375 1.96875 1.609375 5.875q0 2.578125 -0.734375 4.359375q-0.734375 1.765625 -2.046875 2.6875q-1.3125 0.921875 -3.078125 0.921875zm0 -2.734375q0.765625 0 1.375 -0.46875q0.609375 -0.484375 0.96875 -1.640625q0.359375 -1.15625 0.359375 -3.125q0 -1.984375 -0.359375 -3.09375q-0.359375 -1.125 -0.96875 -1.5625q-0.609375 -0.453125 -1.375 -0.453125q-0.75 0 -1.375 0.453125q-0.625 0.4375 -0.984375 1.5625q-0.359375 1.109375 -0.359375 3.09375q0 1.96875 0.359375 3.125q0.359375 1.15625 0.984375 1.640625q0.625 0.46875 1.375 0.46875zm0 -3.453125q-0.75 0 -1.28125 -0.5q-0.515625 -0.5 -0.515625 -1.328125q0 -0.828125 0.515625 -1.3125q0.53125 -0.5 1.28125 -0.5q0.765625 0 1.28125 0.5q0.515625 0.484375 0.515625 1.3125q0 0.828125 -0.515625 1.328125q-0.515625 0.5 -1.28125 0.5zm9.087463 5.90625l0 -2.859375l4.109375 0l0 -8.796875l-3.390625 0l0 -2.1875q1.03125 -0.171875 1.78125 -0.34375q0.765625 -0.1875 1.359375 -0.4375q0.609375 -0.25 1.1875 -0.609375l2.59375 0l0 12.375l3.453125 0l0 2.859375l-11.09375 0zm15.009338 3.640625l0 -1.859375l4.40625 0l0 -16.90625l-4.40625 0l0 -1.859375l7.09375 0l0 20.625l-7.09375 0z" fill-rule="nonzero"/><path fill="#eeeeee" d="m346.09973 121.23097l106.64566 0l0 48.472443l-106.64566 0z" fill-rule="evenodd"/><path stroke="#b6d7a8" stroke-width="3.0" stroke-linejoin="round" stroke-linecap="butt" d="m346.09973 121.23097l106.64566 0l0 48.472443l-106.64566 0z" fill-rule="evenodd"/><path fill="#595959" d="m359.8966 156.91159l0 -20.625l7.109375 0l0 1.859375l-4.421875 0l0 16.90625l4.421875 0l0 1.859375l-7.109375 0z" fill-rule="nonzero"/><path fill="#000000" d="m376.70282 153.55222q-1.75 0 -3.078125 -0.921875q-1.3125 -0.921875 -2.046875 -2.6875q-0.734375 -1.78125 -0.734375 -4.359375q0 -3.90625 1.609375 -5.875q1.609375 -1.96875 4.25 -1.96875q2.65625 0 4.25 1.96875q1.609375 1.96875 1.609375 5.875q0 2.578125 -0.734375 4.359375q-0.734375 1.765625 -2.046875 2.6875q-1.3125 0.921875 -3.078125 0.921875zm0 -2.734375q0.765625 0 1.375 -0.46875q0.609375 -0.484375 0.96875 -1.640625q0.359375 -1.15625 0.359375 -3.125q0 -1.984375 -0.359375 -3.09375q-0.359375 -1.125 -0.96875 -1.5625q-0.609375 -0.453125 -1.375 -0.453125q-0.75 0 -1.375 0.453125q-0.625 0.4375 -0.984375 1.5625q-0.359375 1.109375 -0.359375 3.09375q0 1.96875 0.359375 3.125q0.359375 1.15625 0.984375 1.640625q0.625 0.46875 1.375 0.46875zm0 -3.453125q-0.75 0 -1.28125 -0.5q-0.515625 -0.5 -0.515625 -1.328125q0 -0.828125 0.515625 -1.3125q0.53125 -0.5 1.28125 -0.5q0.765625 0 1.28125 0.5q0.515625 0.484375 0.515625 1.3125q0 0.828125 -0.515625 1.328125q-0.515625 0.5 -1.28125 0.5zm14.399963 6.1875q-1.75 0 -3.078125 -0.921875q-1.3125 -0.921875 -2.046875 -2.6875q-0.734375 -1.78125 -0.734375 -4.359375q0 -3.90625 1.609375 -5.875q1.609375 -1.96875 4.25 -1.96875q2.65625 0 4.25 1.96875q1.609375 1.96875 1.609375 5.875q0 2.578125 -0.734375 4.359375q-0.734375 1.765625 -2.046875 2.6875q-1.3125 0.921875 -3.078125 0.921875zm0 -2.734375q0.765625 0 1.375 -0.46875q0.609375 -0.484375 0.96875 -1.640625q0.359375 -1.15625 0.359375 -3.125q0 -1.984375 -0.359375 -3.09375q-0.359375 -1.125 -0.96875 -1.5625q-0.609375 -0.453125 -1.375 -0.453125q-0.75 0 -1.375 0.453125q-0.625 0.4375 -0.984375 1.5625q-0.359375 1.109375 -0.359375 3.09375q0 1.96875 0.359375 3.125q0.359375 1.15625 0.984375 1.640625q0.625 0.46875 1.375 0.46875zm0 -3.453125q-0.75 0 -1.28125 -0.5q-0.515625 -0.5 -0.515625 -1.328125q0 -0.828125 0.515625 -1.3125q0.53125 -0.5 1.28125 -0.5q0.765625 0 1.28125 0.5q0.515625 0.484375 0.515625 1.3125q0 0.828125 -0.515625 1.328125q-0.515625 0.5 -1.28125 0.5zm9.087463 5.90625l0 -2.859375l4.109375 0l0 -8.796875l-3.390625 0l0 -2.1875q1.03125 -0.171875 1.78125 -0.34375q0.765625 -0.1875 1.359375 -0.4375q0.609375 -0.25 1.1875 -0.609375l2.59375 0l0 12.375l3.453125 0l0 2.859375l-11.09375 0zm19.712463 0.28125q-1.75 0 -3.078125 -0.921875q-1.3125 -0.921875 -2.046875 -2.6875q-0.734375 -1.78125 -0.734375 -4.359375q0 -3.90625 1.609375 -5.875q1.609375 -1.96875 4.25 -1.96875q2.65625 0 4.25 1.96875q1.609375 1.96875 1.609375 5.875q0 2.578125 -0.734375 4.359375q-0.734375 1.765625 -2.046875 2.6875q-1.3125 0.921875 -3.078125 0.921875zm0 -2.734375q0.765625 0 1.375 -0.46875q0.609375 -0.484375 0.96875 -1.640625q0.359375 -1.15625 0.359375 -3.125q0 -1.984375 -0.359375 -3.09375q-0.359375 -1.125 -0.96875 -1.5625q-0.609375 -0.453125 -1.375 -0.453125q-0.75 0 -1.375 0.453125q-0.625 0.4375 -0.984375 1.5625q-0.359375 1.109375 -0.359375 3.09375q0 1.96875 0.359375 3.125q0.359375 1.15625 0.984375 1.640625q0.625 0.46875 1.375 0.46875zm0 -3.453125q-0.75 0 -1.28125 -0.5q-0.515625 -0.5 -0.515625 -1.328125q0 -0.828125 0.515625 -1.3125q0.53125 -0.5 1.28125 -0.5q0.765625 0 1.28125 0.5q0.515625 0.484375 0.515625 1.3125q0 0.828125 -0.515625 1.328125q-0.515625 0.5 -1.28125 0.5z" fill-rule="nonzero"/><path fill="#595959" d="m429.59955 156.91159l0 -1.859375l4.40625 0l0 -16.90625l-4.40625 0l0 -1.859375l7.09375 0l0 20.625l-7.09375 0z" fill-rule="nonzero"/><path fill="#eeeeee" d="m554.6011 121.238846l106.64563 0l0 48.472443l-106.64563 0z" fill-rule="evenodd"/><path stroke="#cc0000" stroke-width="3.0" stroke-linejoin="round" stroke-linecap="butt" d="m554.6011 121.238846l106.64563 0l0 48.472443l-106.64563 0z" fill-rule="evenodd"/><path fill="#000000" d="m568.39795 156.91946l0 -20.625l7.109375 0l0 1.859375l-4.421875 0l0 16.90625l4.421875 0l0 1.859375l-7.109375 0zm16.806213 -3.359375q-1.75 0 -3.078125 -0.921875q-1.3125 -0.921875 -2.046875 -2.6875q-0.734375 -1.78125 -0.734375 -4.359375q0 -3.90625 1.609375 -5.875q1.609375 -1.96875 4.25 -1.96875q2.65625 0 4.25 1.96875q1.609375 1.96875 1.609375 5.875q0 2.578125 -0.734375 4.359375q-0.734375 1.765625 -2.046875 2.6875q-1.3125 0.921875 -3.078125 0.921875zm0 -2.734375q0.765625 0 1.375 -0.46875q0.609375 -0.484375 0.96875 -1.640625q0.359375 -1.15625 0.359375 -3.125q0 -1.984375 -0.359375 -3.09375q-0.359375 -1.125 -0.96875 -1.5625q-0.609375 -0.453125 -1.375 -0.453125q-0.75 0 -1.375 0.453125q-0.625 0.4375 -0.984375 1.5625q-0.359375 1.109375 -0.359375 3.09375q0 1.96875 0.359375 3.125q0.359375 1.15625 0.984375 1.640625q0.625 0.46875 1.375 0.46875zm0 -3.453125q-0.75 0 -1.28125 -0.5q-0.515625 -0.5 -0.515625 -1.328125q0 -0.828125 0.515625 -1.3125q0.53125 -0.5 1.28125 -0.5q0.765625 0 1.28125 0.5q0.515625 0.484375 0.515625 1.3125q0 0.828125 -0.515625 1.328125q-0.515625 0.5 -1.28125 0.5zm9.087463 5.90625l0 -2.859375l4.109375 0l0 -8.796875l-3.390625 0l0 -2.1875q1.03125 -0.171875 1.78125 -0.34375q0.765625 -0.1875 1.359375 -0.4375q0.609375 -0.25 1.1875 -0.609375l2.59375 0l0 12.375l3.453125 0l0 2.859375l-11.09375 0zm19.712463 0.28125q-1.75 0 -3.078125 -0.921875q-1.3125 -0.921875 -2.046875 -2.6875q-0.734375 -1.78125 -0.734375 -4.359375q0 -3.90625 1.609375 -5.875q1.609375 -1.96875 4.25 -1.96875q2.65625 0 4.25 1.96875q1.609375 1.96875 1.609375 5.875q0 2.578125 -0.734375 4.359375q-0.734375 1.765625 -2.046875 2.6875q-1.3125 0.921875 -3.078125 0.921875zm0 -2.734375q0.765625 0 1.375 -0.46875q0.609375 -0.484375 0.96875 -1.640625q0.359375 -1.15625 0.359375 -3.125q0 -1.984375 -0.359375 -3.09375q-0.359375 -1.125 -0.96875 -1.5625q-0.609375 -0.453125 -1.375 -0.453125q-0.75 0 -1.375 0.453125q-0.625 0.4375 -0.984375 1.5625q-0.359375 1.109375 -0.359375 3.09375q0 1.96875 0.359375 3.125q0.359375 1.15625 0.984375 1.640625q0.625 0.46875 1.375 0.46875zm0 -3.453125q-0.75 0 -1.28125 -0.5q-0.515625 -0.5 -0.515625 -1.328125q0 -0.828125 0.515625 -1.3125q0.53125 -0.5 1.28125 -0.5q0.765625 0 1.28125 0.5q0.515625 0.484375 0.515625 1.3125q0 0.828125 -0.515625 1.328125q-0.515625 0.5 -1.28125 0.5zm14.399963 6.1875q-1.75 0 -3.078125 -0.921875q-1.3125 -0.921875 -2.046875 -2.6875q-0.734375 -1.78125 -0.734375 -4.359375q0 -3.90625 1.609375 -5.875q1.609375 -1.96875 4.25 -1.96875q2.65625 0 4.25 1.96875q1.609375 1.96875 1.609375 5.875q0 2.578125 -0.734375 4.359375q-0.734375 1.765625 -2.046875 2.6875q-1.3125 0.921875 -3.078125 0.921875zm0 -2.734375q0.765625 0 1.375 -0.46875q0.609375 -0.484375 0.96875 -1.640625q0.359375 -1.15625 0.359375 -3.125q0 -1.984375 -0.359375 -3.09375q-0.359375 -1.125 -0.96875 -1.5625q-0.609375 -0.453125 -1.375 -0.453125q-0.75 0 -1.375 0.453125q-0.625 0.4375 -0.984375 1.5625q-0.359375 1.109375 -0.359375 3.09375q0 1.96875 0.359375 3.125q0.359375 1.15625 0.984375 1.640625q0.625 0.46875 1.375 0.46875zm0 -3.453125q-0.75 0 -1.28125 -0.5q-0.515625 -0.5 -0.515625 -1.328125q0 -0.828125 0.515625 -1.3125q0.53125 -0.5 1.28125 -0.5q0.765625 0 1.28125 0.5q0.515625 0.484375 0.515625 1.3125q0 0.828125 -0.515625 1.328125q-0.515625 0.5 -1.28125 0.5zm9.696838 9.546875l0 -1.859375l4.40625 0l0 -16.90625l-4.40625 0l0 -1.859375l7.09375 0l0 20.625l-7.09375 0z" fill-rule="nonzero"/><path fill="#eeeeee" d="m719.9134 121.238846l106.64569 0l0 48.472443l-106.64569 0z" fill-rule="evenodd"/><path stroke="#cc0000" stroke-width="3.0" stroke-linejoin="round" stroke-linecap="butt" d="m719.9134 121.238846l106.64569 0l0 48.472443l-106.64569 0z" fill-rule="evenodd"/><path fill="#000000" d="m733.71027 156.91946l0 -20.625l7.109375 0l0 1.859375l-4.421875 0l0 16.90625l4.421875 0l0 1.859375l-7.109375 0zm11.493713 -3.640625l0 -2.859375l4.109375 0l0 -8.796875l-3.390625 0l0 -2.1875q1.03125 -0.171875 1.78125 -0.34375q0.765625 -0.1875 1.359375 -0.4375q0.609375 -0.25 1.1875 -0.609375l2.59375 0l0 12.375l3.453125 0l0 2.859375l-11.09375 0zm19.712463 0.28125q-1.75 0 -3.078125 -0.921875q-1.3125 -0.921875 -2.046875 -2.6875q-0.734375 -1.78125 -0.734375 -4.359375q0 -3.90625 1.609375 -5.875q1.609375 -1.96875 4.25 -1.96875q2.65625 0 4.25 1.96875q1.609375 1.96875 1.609375 5.875q0 2.578125 -0.734375 4.359375q-0.734375 1.765625 -2.046875 2.6875q-1.3125 0.921875 -3.078125 0.921875zm0 -2.734375q0.765625 0 1.375 -0.46875q0.609375 -0.484375 0.96875 -1.640625q0.359375 -1.15625 0.359375 -3.125q0 -1.984375 -0.359375 -3.09375q-0.359375 -1.125 -0.96875 -1.5625q-0.609375 -0.453125 -1.375 -0.453125q-0.75 0 -1.375 0.453125q-0.625 0.4375 -0.984375 1.5625q-0.359375 1.109375 -0.359375 3.09375q0 1.96875 0.359375 3.125q0.359375 1.15625 0.984375 1.640625q0.625 0.46875 1.375 0.46875zm0 -3.453125q-0.75 0 -1.28125 -0.5q-0.515625 -0.5 -0.515625 -1.328125q0 -0.828125 0.515625 -1.3125q0.53125 -0.5 1.28125 -0.5q0.765625 0 1.28125 0.5q0.515625 0.484375 0.515625 1.3125q0 0.828125 -0.515625 1.328125q-0.515625 0.5 -1.28125 0.5zm14.399963 6.1875q-1.75 0 -3.078125 -0.921875q-1.3125 -0.921875 -2.046875 -2.6875q-0.734375 -1.78125 -0.734375 -4.359375q0 -3.90625 1.609375 -5.875q1.609375 -1.96875 4.25 -1.96875q2.65625 0 4.25 1.96875q1.609375 1.96875 1.609375 5.875q0 2.578125 -0.734375 4.359375q-0.734375 1.765625 -2.046875 2.6875q-1.3125 0.921875 -3.078125 0.921875zm0 -2.734375q0.765625 0 1.375 -0.46875q0.609375 -0.484375 0.96875 -1.640625q0.359375 -1.15625 0.359375 -3.125q0 -1.984375 -0.359375 -3.09375q-0.359375 -1.125 -0.96875 -1.5625q-0.609375 -0.453125 -1.375 -0.453125q-0.75 0 -1.375 0.453125q-0.625 0.4375 -0.984375 1.5625q-0.359375 1.109375 -0.359375 3.09375q0 1.96875 0.359375 3.125q0.359375 1.15625 0.984375 1.640625q0.625 0.46875 1.375 0.46875zm0 -3.453125q-0.75 0 -1.28125 -0.5q-0.515625 -0.5 -0.515625 -1.328125q0 -0.828125 0.515625 -1.3125q0.53125 -0.5 1.28125 -0.5q0.765625 0 1.28125 0.5q0.515625 0.484375 0.515625 1.3125q0 0.828125 -0.515625 1.328125q-0.515625 0.5 -1.28125 0.5zm14.399963 6.1875q-1.75 0 -3.078125 -0.921875q-1.3125 -0.921875 -2.046875 -2.6875q-0.734375 -1.78125 -0.734375 -4.359375q0 -3.90625 1.609375 -5.875q1.609375 -1.96875 4.25 -1.96875q2.65625 0 4.25 1.96875q1.609375 1.96875 1.609375 5.875q0 2.578125 -0.734375 4.359375q-0.734375 1.765625 -2.046875 2.6875q-1.3125 0.921875 -3.078125 0.921875zm0 -2.734375q0.765625 0 1.375 -0.46875q0.609375 -0.484375 0.96875 -1.640625q0.359375 -1.15625 0.359375 -3.125q0 -1.984375 -0.359375 -3.09375q-0.359375 -1.125 -0.96875 -1.5625q-0.609375 -0.453125 -1.375 -0.453125q-0.75 0 -1.375 0.453125q-0.625 0.4375 -0.984375 1.5625q-0.359375 1.109375 -0.359375 3.09375q0 1.96875 0.359375 3.125q0.359375 1.15625 0.984375 1.640625q0.625 0.46875 1.375 0.46875zm0 -3.453125q-0.75 0 -1.28125 -0.5q-0.515625 -0.5 -0.515625 -1.328125q0 -0.828125 0.515625 -1.3125q0.53125 -0.5 1.28125 -0.5q0.765625 0 1.28125 0.5q0.515625 0.484375 0.515625 1.3125q0 0.828125 -0.515625 1.328125q-0.515625 0.5 -1.28125 0.5zm9.696838 9.546875l0 -1.859375l4.40625 0l0 -16.90625l-4.40625 0l0 -1.859375l7.09375 0l0 20.625l-7.09375 0z" fill-rule="nonzero"/><path fill="#000000" fill-opacity="0.0" d="m458.67715 62.53806c-114.47244 0 -228.94487 29.354328 -228.94487 58.70866" fill-rule="evenodd"/><path stroke="#6aa84f" stroke-width="4.0" stroke-linejoin="round" stroke-linecap="butt" d="m458.67715 62.53806c-57.236206 0 -114.47244 7.338581 -157.3996 18.346455c-21.463593 5.503937 -39.349915 11.925194 -51.870316 18.805122c-1.5650482 0.85998535 -3.0462646 1.7271423 -4.440155 2.6005783l-0.28590393 0.18071747" fill-rule="evenodd"/><path fill="#6aa84f" stroke="#6aa84f" stroke-width="4.0" stroke-linecap="butt" d="m239.51244 98.35567l-6.137848 18.316322l16.475372 -10.085785z" fill-rule="evenodd"/><path fill="#000000" fill-opacity="0.0" d="m565.3228 62.53806c103.95276 0 207.90552 29.354328 207.90552 58.70866" fill-rule="evenodd"/><path stroke="#cc0000" stroke-width="1.0" stroke-linejoin="round" stroke-linecap="butt" d="m565.3228 62.53806c51.97638 0 103.95276 7.338581 142.93506 18.346455c19.49115 5.503937 35.733765 11.925194 47.103577 18.805122c5.6849976 3.4399567 10.151672 6.994583 13.1970825 10.6065445c0.7614136 0.9029846 1.434021 1.8095627 2.0145264 2.7188187c0.2902832 0.45463562 0.5574951 0.90992737 0.80145264 1.3657913c0.12188721 0.22793579 0.23803711 0.4560089 0.34820557 0.6842041l0.1574707 0.33515167" fill-rule="evenodd"/><path fill="#cc0000" stroke="#cc0000" stroke-width="1.0" stroke-linecap="butt" d="m770.2707 115.771286l2.6291504 4.050911l0.58984375 -4.79319z" fill-rule="evenodd"/><path fill="#000000" fill-opacity="0.0" d="m512.0 86.77428c0 8.614174 -28.141724 12.921265 -56.283478 17.228348c-28.141724 4.307083 -56.283447 8.614174 -56.283447 17.228348" fill-rule="evenodd"/><path stroke="#93c47d" stroke-width="1.0" stroke-linejoin="round" stroke-linecap="butt" d="m512.0 86.77428c0 8.614174 -28.141724 12.921265 -56.283478 17.228348c-14.070862 2.1535416 -28.141724 4.307083 -38.694855 6.999016c-5.276581 1.3459625 -9.673737 2.8265228 -12.7517395 4.50898c-0.38476562 0.21030426 -0.74890137 0.42377472 -1.0915833 0.64051056c-0.085632324 0.05419922 -0.16998291 0.10858917 -0.2529297 0.16318512l-0.027313232 0.018341064" fill-rule="evenodd"/><path fill="#93c47d" stroke="#93c47d" stroke-width="1.0" stroke-linecap="butt" d="m401.54965 115.37877l-1.2723083 4.658722l3.9692078 -2.7509537z" fill-rule="evenodd"/><path fill="#000000" fill-opacity="0.0" d="m512.0 86.77428c0 8.616074 23.984253 12.925049 47.968506 17.23214c23.984253 4.307083 47.968506 8.612274 47.968506 17.224556" fill-rule="evenodd"/><path stroke="#cc0000" stroke-width="1.0" stroke-linejoin="round" stroke-linecap="butt" d="m512.0 86.77428c0 8.616074 23.984253 12.925056 47.968506 17.23214c11.992126 2.1535416 23.984253 4.3066177 32.978333 6.9978256c4.4970703 1.3456192 8.244629 2.82576 10.867859 4.5077744c0.16400146 0.1051178 0.32354736 0.21103668 0.4786377 0.31775665c0.07751465 0.053359985 0.15393066 0.106918335 0.22924805 0.16068268l0.22106934 0.16091156" fill-rule="evenodd"/><path fill="#cc0000" stroke="#cc0000" stroke-width="1.0" stroke-linecap="butt" d="m603.3453 117.030464l3.8136597 2.96286l-1.0169067 -4.721054z" fill-rule="evenodd"/><path fill="#eeeeee" d="m75.509186 237.43832l106.645676 0l0 48.472443l-106.645676 0z" fill-rule="evenodd"/><path stroke="#cc0000" stroke-width="3.0" stroke-linejoin="round" stroke-linecap="butt" d="m75.509186 237.43832l106.645676 0l0 48.472443l-106.645676 0z" fill-rule="evenodd"/><path fill="#000000" d="m89.30606 273.11896l0 -20.625015l7.109375 0l0 1.859375l-4.421875 0l0 16.906265l4.421875 0l0 1.859375l-7.109375 0zm16.806213 -3.359375q-1.75 0 -3.078125 -0.921875q-1.3125 -0.921875 -2.046875 -2.6875q-0.734375 -1.78125 -0.734375 -4.359375q0 -3.90625 1.609375 -5.8750153q1.609375 -1.96875 4.25 -1.96875q2.65625 0 4.25 1.96875q1.609375 1.9687653 1.609375 5.8750153q0 2.578125 -0.734375 4.359375q-0.734375 1.765625 -2.046875 2.6875q-1.3125 0.921875 -3.078125 0.921875zm0 -2.734375q0.765625 0 1.375 -0.46875q0.609375 -0.484375 0.96875 -1.640625q0.359375 -1.15625 0.359375 -3.125q0 -1.984375 -0.359375 -3.09375q-0.359375 -1.125 -0.96875 -1.5625q-0.609375 -0.453125 -1.375 -0.453125q-0.75 0 -1.375 0.453125q-0.625 0.4375 -0.984375 1.5625q-0.359375 1.109375 -0.359375 3.09375q0 1.96875 0.359375 3.125q0.359375 1.15625 0.984375 1.640625q0.625 0.46875 1.375 0.46875zm0 -3.453125q-0.75 0 -1.28125 -0.5q-0.515625 -0.5 -0.515625 -1.328125q0 -0.828125 0.515625 -1.3125q0.53125 -0.5 1.28125 -0.5q0.765625 0 1.28125 0.5q0.515625 0.484375 0.515625 1.3125q0 0.828125 -0.515625 1.328125q-0.515625 0.5 -1.28125 0.5zm14.399963 6.1875q-1.75 0 -3.078125 -0.921875q-1.3125 -0.921875 -2.046875 -2.6875q-0.734375 -1.78125 -0.734375 -4.359375q0 -3.90625 1.609375 -5.8750153q1.609375 -1.96875 4.25 -1.96875q2.65625 0 4.25 1.96875q1.609375 1.9687653 1.609375 5.8750153q0 2.578125 -0.734375 4.359375q-0.734375 1.765625 -2.046875 2.6875q-1.3125 0.921875 -3.078125 0.921875zm0 -2.734375q0.765625 0 1.375 -0.46875q0.609375 -0.484375 0.96875 -1.640625q0.359375 -1.15625 0.359375 -3.125q0 -1.984375 -0.359375 -3.09375q-0.359375 -1.125 -0.96875 -1.5625q-0.609375 -0.453125 -1.375 -0.453125q-0.75 0 -1.375 0.453125q-0.625 0.4375 -0.984375 1.5625q-0.359375 1.109375 -0.359375 3.09375q0 1.96875 0.359375 3.125q0.359375 1.15625 0.984375 1.640625q0.625 0.46875 1.375 0.46875zm0 -3.453125q-0.75 0 -1.28125 -0.5q-0.515625 -0.5 -0.515625 -1.328125q0 -0.828125 0.515625 -1.3125q0.53125 -0.5 1.28125 -0.5q0.765625 0 1.28125 0.5q0.515625 0.484375 0.515625 1.3125q0 0.828125 -0.515625 1.328125q-0.515625 0.5 -1.28125 0.5zm9.087463 5.90625l0 -2.859375l4.109375 0l0 -8.796875l-3.390625 0l0 -2.1875153q1.03125 -0.171875 1.78125 -0.34375q0.765625 -0.1875 1.359375 -0.4375q0.609375 -0.25 1.1875 -0.609375l2.59375 0l0 12.375015l3.453125 0l0 2.859375l-11.09375 0zm14.399963 0l0 -2.859375l4.109375 0l0 -8.796875l-3.390625 0l0 -2.1875153q1.03125 -0.171875 1.78125 -0.34375q0.765625 -0.1875 1.359375 -0.4375q0.609375 -0.25 1.1875 -0.609375l2.59375 0l0 12.375015l3.453125 0l0 2.859375l-11.09375 0zm15.009338 3.640625l0 -1.859375l4.40625 0l0 -16.906265l-4.40625 0l0 -1.859375l7.09375 0l0 20.625015l-7.09375 0z" fill-rule="nonzero"/><path fill="#eeeeee" d="m210.08661 237.43832l106.64566 0l0 48.472443l-106.64566 0z" fill-rule="evenodd"/><path stroke="#cc0000" stroke-width="3.0" stroke-linejoin="round" stroke-linecap="butt" d="m210.08661 237.43832l106.64566 0l0 48.472443l-106.64566 0z" fill-rule="evenodd"/><path fill="#000000" d="m223.88348 273.11896l0 -20.625015l7.109375 0l0 1.859375l-4.421875 0l0 16.906265l4.421875 0l0 1.859375l-7.109375 0zm16.806213 -3.359375q-1.75 0 -3.078125 -0.921875q-1.3125 -0.921875 -2.046875 -2.6875q-0.734375 -1.78125 -0.734375 -4.359375q0 -3.90625 1.609375 -5.8750153q1.609375 -1.96875 4.25 -1.96875q2.65625 0 4.25 1.96875q1.609375 1.9687653 1.609375 5.8750153q0 2.578125 -0.734375 4.359375q-0.734375 1.765625 -2.046875 2.6875q-1.3125 0.921875 -3.078125 0.921875zm0 -2.734375q0.765625 0 1.375 -0.46875q0.609375 -0.484375 0.96875 -1.640625q0.359375 -1.15625 0.359375 -3.125q0 -1.984375 -0.359375 -3.09375q-0.359375 -1.125 -0.96875 -1.5625q-0.609375 -0.453125 -1.375 -0.453125q-0.75 0 -1.375 0.453125q-0.625 0.4375 -0.984375 1.5625q-0.359375 1.109375 -0.359375 3.09375q0 1.96875 0.359375 3.125q0.359375 1.15625 0.984375 1.640625q0.625 0.46875 1.375 0.46875zm0 -3.453125q-0.75 0 -1.28125 -0.5q-0.515625 -0.5 -0.515625 -1.328125q0 -0.828125 0.515625 -1.3125q0.53125 -0.5 1.28125 -0.5q0.765625 0 1.28125 0.5q0.515625 0.484375 0.515625 1.3125q0 0.828125 -0.515625 1.328125q-0.515625 0.5 -1.28125 0.5zm9.087463 5.90625l0 -2.859375l4.109375 0l0 -8.796875l-3.390625 0l0 -2.1875153q1.03125 -0.171875 1.78125 -0.34375q0.765625 -0.1875 1.359375 -0.4375q0.609375 -0.25 1.1875 -0.609375l2.59375 0l0 12.375015l3.453125 0l0 2.859375l-11.09375 0zm19.712463 0.28125q-1.75 0 -3.078125 -0.921875q-1.3125 -0.921875 -2.046875 -2.6875q-0.734375 -1.78125 -0.734375 -4.359375q0 -3.90625 1.609375 -5.8750153q1.609375 -1.96875 4.25 -1.96875q2.65625 0 4.25 1.96875q1.609375 1.9687653 1.609375 5.8750153q0 2.578125 -0.734375 4.359375q-0.734375 1.765625 -2.046875 2.6875q-1.3125 0.921875 -3.078125 0.921875zm0 -2.734375q0.765625 0 1.375 -0.46875q0.609375 -0.484375 0.96875 -1.640625q0.359375 -1.15625 0.359375 -3.125q0 -1.984375 -0.359375 -3.09375q-0.359375 -1.125 -0.96875 -1.5625q-0.609375 -0.453125 -1.375 -0.453125q-0.75 0 -1.375 0.453125q-0.625 0.4375 -0.984375 1.5625q-0.359375 1.109375 -0.359375 3.09375q0 1.96875 0.359375 3.125q0.359375 1.15625 0.984375 1.640625q0.625 0.46875 1.375 0.46875zm0 -3.453125q-0.75 0 -1.28125 -0.5q-0.515625 -0.5 -0.515625 -1.328125q0 -0.828125 0.515625 -1.3125q0.53125 -0.5 1.28125 -0.5q0.765625 0 1.28125 0.5q0.515625 0.484375 0.515625 1.3125q0 0.828125 -0.515625 1.328125q-0.515625 0.5 -1.28125 0.5zm9.087463 5.90625l0 -2.859375l4.109375 0l0 -8.796875l-3.390625 0l0 -2.1875153q1.03125 -0.171875 1.78125 -0.34375q0.765625 -0.1875 1.359375 -0.4375q0.609375 -0.25 1.1875 -0.609375l2.59375 0l0 12.375015l3.453125 0l0 2.859375l-11.09375 0zm15.009338 3.640625l0 -1.859375l4.40625 0l0 -16.906265l-4.40625 0l0 -1.859375l7.09375 0l0 20.625015l-7.09375 0z" fill-rule="nonzero"/><path fill="#eeeeee" d="m370.6273 237.43832l106.64569 0l0 48.472443l-106.64569 0z" fill-rule="evenodd"/><path fill="#999999" d="m384.42416 273.11896l0 -20.625015l7.109375 0l0 1.859375l-4.421875 0l0 16.906265l4.421875 0l0 1.859375l-7.109375 0zm16.806213 -3.359375q-1.75 0 -3.078125 -0.921875q-1.3125 -0.921875 -2.046875 -2.6875q-0.734375 -1.78125 -0.734375 -4.359375q0 -3.90625 1.609375 -5.8750153q1.609375 -1.96875 4.25 -1.96875q2.65625 0 4.25 1.96875q1.609375 1.9687653 1.609375 5.8750153q0 2.578125 -0.734375 4.359375q-0.734375 1.765625 -2.046875 2.6875q-1.3125 0.921875 -3.078125 0.921875zm0 -2.734375q0.765625 0 1.375 -0.46875q0.609375 -0.484375 0.96875 -1.640625q0.359375 -1.15625 0.359375 -3.125q0 -1.984375 -0.359375 -3.09375q-0.359375 -1.125 -0.96875 -1.5625q-0.609375 -0.453125 -1.375 -0.453125q-0.75 0 -1.375 0.453125q-0.625 0.4375 -0.984375 1.5625q-0.359375 1.109375 -0.359375 3.09375q0 1.96875 0.359375 3.125q0.359375 1.15625 0.984375 1.640625q0.625 0.46875 1.375 0.46875zm0 -3.453125q-0.75 0 -1.28125 -0.5q-0.515625 -0.5 -0.515625 -1.328125q0 -0.828125 0.515625 -1.3125q0.53125 -0.5 1.28125 -0.5q0.765625 0 1.28125 0.5q0.515625 0.484375 0.515625 1.3125q0 0.828125 -0.515625 1.328125q-0.515625 0.5 -1.28125 0.5zm9.087463 5.90625l0 -2.859375l4.109375 0l0 -8.796875l-3.390625 0l0 -2.1875153q1.03125 -0.171875 1.78125 -0.34375q0.765625 -0.1875 1.359375 -0.4375q0.609375 -0.25 1.1875 -0.609375l2.59375 0l0 12.375015l3.453125 0l0 2.859375l-11.09375 0zm14.399963 0l0 -2.859375l4.109375 0l0 -8.796875l-3.390625 0l0 -2.1875153q1.03125 -0.171875 1.78125 -0.34375q0.765625 -0.1875 1.359375 -0.4375q0.609375 -0.25 1.1875 -0.609375l2.59375 0l0 12.375015l3.453125 0l0 2.859375l-11.09375 0zm19.712463 0.28125q-1.75 0 -3.078125 -0.921875q-1.3125 -0.921875 -2.046875 -2.6875q-0.734375 -1.78125 -0.734375 -4.359375q0 -3.90625 1.609375 -5.8750153q1.609375 -1.96875 4.25 -1.96875q2.65625 0 4.25 1.96875q1.609375 1.9687653 1.609375 5.8750153q0 2.578125 -0.734375 4.359375q-0.734375 1.765625 -2.046875 2.6875q-1.3125 0.921875 -3.078125 0.921875zm0 -2.734375q0.765625 0 1.375 -0.46875q0.609375 -0.484375 0.96875 -1.640625q0.359375 -1.15625 0.359375 -3.125q0 -1.984375 -0.359375 -3.09375q-0.359375 -1.125 -0.96875 -1.5625q-0.609375 -0.453125 -1.375 -0.453125q-0.75 0 -1.375 0.453125q-0.625 0.4375 -0.984375 1.5625q-0.359375 1.109375 -0.359375 3.09375q0 1.96875 0.359375 3.125q0.359375 1.15625 0.984375 1.640625q0.625 0.46875 1.375 0.46875zm0 -3.453125q-0.75 0 -1.28125 -0.5q-0.515625 -0.5 -0.515625 -1.328125q0 -0.828125 0.515625 -1.3125q0.53125 -0.5 1.28125 -0.5q0.765625 0 1.28125 0.5q0.515625 0.484375 0.515625 1.3125q0 0.828125 -0.515625 1.328125q-0.515625 0.5 -1.28125 0.5zm9.696838 9.546875l0 -1.859375l4.40625 0l0 -16.906265l-4.40625 0l0 -1.859375l7.09375 0l0 20.625015l-7.09375 0z" fill-rule="nonzero"/><path fill="#eeeeee" d="m522.4698 237.43832l106.64569 0l0 48.472443l-106.64569 0z" fill-rule="evenodd"/><path stroke="#6aa84f" stroke-width="3.0" stroke-linejoin="round" stroke-linecap="butt" d="m522.4698 237.43832l106.64569 0l0 48.472443l-106.64569 0z" fill-rule="evenodd"/><path fill="#000000" d="m536.26666 273.11896l0 -20.625015l7.109375 0l0 1.859375l-4.421875 0l0 16.906265l4.421875 0l0 1.859375l-7.109375 0zm11.493713 -3.640625l0 -2.859375l4.109375 0l0 -8.796875l-3.390625 0l0 -2.1875153q1.03125 -0.171875 1.78125 -0.34375q0.765625 -0.1875 1.359375 -0.4375q0.609375 -0.25 1.1875 -0.609375l2.59375 0l0 12.375015l3.453125 0l0 2.859375l-11.09375 0zm19.712463 0.28125q-1.75 0 -3.078125 -0.921875q-1.3125 -0.921875 -2.046875 -2.6875q-0.734375 -1.78125 -0.734375 -4.359375q0 -3.90625 1.609375 -5.8750153q1.609375 -1.96875 4.25 -1.96875q2.65625 0 4.25 1.96875q1.609375 1.9687653 1.609375 5.8750153q0 2.578125 -0.734375 4.359375q-0.734375 1.765625 -2.046875 2.6875q-1.3125 0.921875 -3.078125 0.921875zm0 -2.734375q0.765625 0 1.375 -0.46875q0.609375 -0.484375 0.96875 -1.640625q0.359375 -1.15625 0.359375 -3.125q0 -1.984375 -0.359375 -3.09375q-0.359375 -1.125 -0.96875 -1.5625q-0.609375 -0.453125 -1.375 -0.453125q-0.75 0 -1.375 0.453125q-0.625 0.4375 -0.984375 1.5625q-0.359375 1.109375 -0.359375 3.09375q0 1.96875 0.359375 3.125q0.359375 1.15625 0.984375 1.640625q0.625 0.46875 1.375 0.46875zm0 -3.453125q-0.75 0 -1.28125 -0.5q-0.515625 -0.5 -0.515625 -1.328125q0 -0.828125 0.515625 -1.3125q0.53125 -0.5 1.28125 -0.5q0.765625 0 1.28125 0.5q0.515625 0.484375 0.515625 1.3125q0 0.828125 -0.515625 1.328125q-0.515625 0.5 -1.28125 0.5zm14.399963 6.1875q-1.75 0 -3.078125 -0.921875q-1.3125 -0.921875 -2.046875 -2.6875q-0.734375 -1.78125 -0.734375 -4.359375q0 -3.90625 1.609375 -5.8750153q1.609375 -1.96875 4.25 -1.96875q2.65625 0 4.25 1.96875q1.609375 1.9687653 1.609375 5.8750153q0 2.578125 -0.734375 4.359375q-0.734375 1.765625 -2.046875 2.6875q-1.3125 0.921875 -3.078125 0.921875zm0 -2.734375q0.765625 0 1.375 -0.46875q0.609375 -0.484375 0.96875 -1.640625q0.359375 -1.15625 0.359375 -3.125q0 -1.984375 -0.359375 -3.09375q-0.359375 -1.125 -0.96875 -1.5625q-0.609375 -0.453125 -1.375 -0.453125q-0.75 0 -1.375 0.453125q-0.625 0.4375 -0.984375 1.5625q-0.359375 1.109375 -0.359375 3.09375q0 1.96875 0.359375 3.125q0.359375 1.15625 0.984375 1.640625q0.625 0.46875 1.375 0.46875zm0 -3.453125q-0.75 0 -1.28125 -0.5q-0.515625 -0.5 -0.515625 -1.328125q0 -0.828125 0.515625 -1.3125q0.53125 -0.5 1.28125 -0.5q0.765625 0 1.28125 0.5q0.515625 0.484375 0.515625 1.3125q0 0.828125 -0.515625 1.328125q-0.515625 0.5 -1.28125 0.5zm9.087463 5.90625l0 -2.859375l4.109375 0l0 -8.796875l-3.390625 0l0 -2.1875153q1.03125 -0.171875 1.78125 -0.34375q0.765625 -0.1875 1.359375 -0.4375q0.609375 -0.25 1.1875 -0.609375l2.59375 0l0 12.375015l3.453125 0l0 2.859375l-11.09375 0zm15.009338 3.640625l0 -1.859375l4.40625 0l0 -16.906265l-4.40625 0l0 -1.859375l7.09375 0l0 20.625015l-7.09375 0z" fill-rule="nonzero"/><path fill="#eeeeee" d="m682.3123 237.43832l106.64569 0l0 48.472443l-106.64569 0z" fill-rule="evenodd"/><path fill="#999999" d="m696.1092 273.11896l0 -20.625015l7.109375 0l0 1.859375l-4.421875 0l0 16.906265l4.421875 0l0 1.859375l-7.109375 0zm11.493713 -3.640625l0 -2.859375l4.109375 0l0 -8.796875l-3.390625 0l0 -2.1875153q1.03125 -0.171875 1.78125 -0.34375q0.765625 -0.1875 1.359375 -0.4375q0.609375 -0.25 1.1875 -0.609375l2.59375 0l0 12.375015l3.453125 0l0 2.859375l-11.09375 0zm19.712463 0.28125q-1.75 0 -3.078125 -0.921875q-1.3125 -0.921875 -2.046875 -2.6875q-0.734375 -1.78125 -0.734375 -4.359375q0 -3.90625 1.609375 -5.8750153q1.609375 -1.96875 4.25 -1.96875q2.65625 0 4.25 1.96875q1.609375 1.9687653 1.609375 5.8750153q0 2.578125 -0.734375 4.359375q-0.734375 1.765625 -2.046875 2.6875q-1.3125 0.921875 -3.078125 0.921875zm0 -2.734375q0.765625 0 1.375 -0.46875q0.609375 -0.484375 0.96875 -1.640625q0.359375 -1.15625 0.359375 -3.125q0 -1.984375 -0.359375 -3.09375q-0.359375 -1.125 -0.96875 -1.5625q-0.609375 -0.453125 -1.375 -0.453125q-0.75 0 -1.375 0.453125q-0.625 0.4375 -0.984375 1.5625q-0.359375 1.109375 -0.359375 3.09375q0 1.96875 0.359375 3.125q0.359375 1.15625 0.984375 1.640625q0.625 0.46875 1.375 0.46875zm0 -3.453125q-0.75 0 -1.28125 -0.5q-0.515625 -0.5 -0.515625 -1.328125q0 -0.828125 0.515625 -1.3125q0.53125 -0.5 1.28125 -0.5q0.765625 0 1.28125 0.5q0.515625 0.484375 0.515625 1.3125q0 0.828125 -0.515625 1.328125q-0.515625 0.5 -1.28125 0.5zm9.087463 5.90625l0 -2.859375l4.109375 0l0 -8.796875l-3.390625 0l0 -2.1875153q1.03125 -0.171875 1.78125 -0.34375q0.765625 -0.1875 1.359375 -0.4375q0.609375 -0.25 1.1875 -0.609375l2.59375 0l0 12.375015l3.453125 0l0 2.859375l-11.09375 0zm19.712463 0.28125q-1.75 0 -3.078125 -0.921875q-1.3125 -0.921875 -2.046875 -2.6875q-0.734375 -1.78125 -0.734375 -4.359375q0 -3.90625 1.609375 -5.8750153q1.609375 -1.96875 4.25 -1.96875q2.65625 0 4.25 1.96875q1.609375 1.9687653 1.609375 5.8750153q0 2.578125 -0.734375 4.359375q-0.734375 1.765625 -2.046875 2.6875q-1.3125 0.921875 -3.078125 0.921875zm0 -2.734375q0.765625 0 1.375 -0.46875q0.609375 -0.484375 0.96875 -1.640625q0.359375 -1.15625 0.359375 -3.125q0 -1.984375 -0.359375 -3.09375q-0.359375 -1.125 -0.96875 -1.5625q-0.609375 -0.453125 -1.375 -0.453125q-0.75 0 -1.375 0.453125q-0.625 0.4375 -0.984375 1.5625q-0.359375 1.109375 -0.359375 3.09375q0 1.96875 0.359375 3.125q0.359375 1.15625 0.984375 1.640625q0.625 0.46875 1.375 0.46875zm0 -3.453125q-0.75 0 -1.28125 -0.5q-0.515625 -0.5 -0.515625 -1.328125q0 -0.828125 0.515625 -1.3125q0.53125 -0.5 1.28125 -0.5q0.765625 0 1.28125 0.5q0.515625 0.484375 0.515625 1.3125q0 0.828125 -0.515625 1.328125q-0.515625 0.5 -1.28125 0.5zm9.696838 9.546875l0 -1.859375l4.40625 0l0 -16.906265l-4.40625 0l0 -1.859375l7.09375 0l0 20.625015l-7.09375 0z" fill-rule="nonzero"/><path fill="#eeeeee" d="m818.15485 237.43832l106.64569 0l0 48.472443l-106.64569 0z" fill-rule="evenodd"/><path stroke="#9900ff" stroke-width="3.0" stroke-linejoin="round" stroke-linecap="butt" d="m818.15485 237.43832l106.64569 0l0 48.472443l-106.64569 0z" fill-rule="evenodd"/><path fill="#000000" d="m831.9517 273.11896l0 -20.625015l7.109375 0l0 1.859375l-4.421875 0l0 16.906265l4.421875 0l0 1.859375l-7.109375 0zm11.493713 -3.640625l0 -2.859375l4.109375 0l0 -8.796875l-3.390625 0l0 -2.1875153q1.03125 -0.171875 1.78125 -0.34375q0.765625 -0.1875 1.359375 -0.4375q0.609375 -0.25 1.1875 -0.609375l2.59375 0l0 12.375015l3.453125 0l0 2.859375l-11.09375 0zm14.399963 0l0 -2.859375l4.109375 0l0 -8.796875l-3.390625 0l0 -2.1875153q1.03125 -0.171875 1.78125 -0.34375q0.765625 -0.1875 1.359375 -0.4375q0.609375 -0.25 1.1875 -0.609375l2.59375 0l0 12.375015l3.453125 0l0 2.859375l-11.09375 0zm19.712463 0.28125q-1.75 0 -3.078125 -0.921875q-1.3125 -0.921875 -2.046875 -2.6875q-0.734375 -1.78125 -0.734375 -4.359375q0 -3.90625 1.609375 -5.8750153q1.609375 -1.96875 4.25 -1.96875q2.65625 0 4.25 1.96875q1.609375 1.9687653 1.609375 5.8750153q0 2.578125 -0.734375 4.359375q-0.734375 1.765625 -2.046875 2.6875q-1.3125 0.921875 -3.078125 0.921875zm0 -2.734375q0.765625 0 1.375 -0.46875q0.609375 -0.484375 0.96875 -1.640625q0.359375 -1.15625 0.359375 -3.125q0 -1.984375 -0.359375 -3.09375q-0.359375 -1.125 -0.96875 -1.5625q-0.609375 -0.453125 -1.375 -0.453125q-0.75 0 -1.375 0.453125q-0.625 0.4375 -0.984375 1.5625q-0.359375 1.109375 -0.359375 3.09375q0 1.96875 0.359375 3.125q0.359375 1.15625 0.984375 1.640625q0.625 0.46875 1.375 0.46875zm0 -3.453125q-0.75 0 -1.28125 -0.5q-0.515625 -0.5 -0.515625 -1.328125q0 -0.828125 0.515625 -1.3125q0.53125 -0.5 1.28125 -0.5q0.765625 0 1.28125 0.5q0.515625 0.484375 0.515625 1.3125q0 0.828125 -0.515625 1.328125q-0.515625 0.5 -1.28125 0.5zm14.399963 6.1875q-1.75 0 -3.078125 -0.921875q-1.3125 -0.921875 -2.046875 -2.6875q-0.734375 -1.78125 -0.734375 -4.359375q0 -3.90625 1.609375 -5.8750153q1.609375 -1.96875 4.25 -1.96875q2.65625 0 4.25 1.96875q1.609375 1.9687653 1.609375 5.8750153q0 2.578125 -0.734375 4.359375q-0.734375 1.765625 -2.046875 2.6875q-1.3125 0.921875 -3.078125 0.921875zm0 -2.734375q0.765625 0 1.375 -0.46875q0.609375 -0.484375 0.96875 -1.640625q0.359375 -1.15625 0.359375 -3.125q0 -1.984375 -0.359375 -3.09375q-0.359375 -1.125 -0.96875 -1.5625q-0.609375 -0.453125 -1.375 -0.453125q-0.75 0 -1.375 0.453125q-0.625 0.4375 -0.984375 1.5625q-0.359375 1.109375 -0.359375 3.09375q0 1.96875 0.359375 3.125q0.359375 1.15625 0.984375 1.640625q0.625 0.46875 1.375 0.46875zm0 -3.453125q-0.75 0 -1.28125 -0.5q-0.515625 -0.5 -0.515625 -1.328125q0 -0.828125 0.515625 -1.3125q0.53125 -0.5 1.28125 -0.5q0.765625 0 1.28125 0.5q0.515625 0.484375 0.515625 1.3125q0 0.828125 -0.515625 1.328125q-0.515625 0.5 -1.28125 0.5zm9.696838 9.546875l0 -1.859375l4.40625 0l0 -16.906265l-4.40625 0l0 -1.859375l7.09375 0l0 20.625015l-7.09375 0z" fill-rule="nonzero"/><path fill="#eeeeee" d="m136.40683 362.0551l106.64566 0l0 48.472443l-106.64566 0z" fill-rule="evenodd"/><path fill="#999999" d="m150.2037 397.73575l0 -20.625l7.109375 0l0 1.859375l-4.421875 0l0 16.90625l4.421875 0l0 1.859375l-7.109375 0zm16.806213 -3.359375q-1.75 0 -3.078125 -0.921875q-1.3125 -0.921875 -2.046875 -2.6875q-0.734375 -1.78125 -0.734375 -4.359375q0 -3.90625 1.609375 -5.875q1.609375 -1.96875 4.25 -1.96875q2.65625 0 4.25 1.96875q1.609375 1.96875 1.609375 5.875q0 2.578125 -0.734375 4.359375q-0.734375 1.765625 -2.046875 2.6875q-1.3125 0.921875 -3.078125 0.921875zm0 -2.734375q0.765625 0 1.375 -0.46875q0.609375 -0.484375 0.96875 -1.640625q0.359375 -1.15625 0.359375 -3.125q0 -1.984375 -0.359375 -3.09375q-0.359375 -1.125 -0.96875 -1.5625q-0.609375 -0.453125 -1.375 -0.453125q-0.75 0 -1.375 0.453125q-0.625 0.4375 -0.984375 1.5625q-0.359375 1.109375 -0.359375 3.09375q0 1.96875 0.359375 3.125q0.359375 1.15625 0.984375 1.640625q0.625 0.46875 1.375 0.46875zm0 -3.453125q-0.75 0 -1.28125 -0.5q-0.515625 -0.5 -0.515625 -1.328125q0 -0.828125 0.515625 -1.3125q0.53125 -0.5 1.28125 -0.5q0.765625 0 1.28125 0.5q0.515625 0.484375 0.515625 1.3125q0 0.828125 -0.515625 1.328125q-0.515625 0.5 -1.28125 0.5zm9.087463 5.90625l0 -2.859375l4.109375 0l0 -8.796875l-3.390625 0l0 -2.1875q1.03125 -0.171875 1.78125 -0.34375q0.765625 -0.1875 1.359375 -0.4375q0.609375 -0.25 1.1875 -0.609375l2.59375 0l0 12.375l3.453125 0l0 2.859375l-11.09375 0zm14.399963 0l0 -2.859375l4.109375 0l0 -8.796875l-3.390625 0l0 -2.1875q1.03125 -0.171875 1.78125 -0.34375q0.765625 -0.1875 1.359375 -0.4375q0.609375 -0.25 1.1875 -0.609375l2.59375 0l0 12.375l3.453125 0l0 2.859375l-11.09375 0zm14.399963 0l0 -2.859375l4.109375 0l0 -8.796875l-3.390625 0l0 -2.1875q1.03125 -0.171875 1.78125 -0.34375q0.765625 -0.1875 1.359375 -0.4375q0.609375 -0.25 1.1875 -0.609375l2.59375 0l0 12.375l3.453125 0l0 2.859375l-11.09375 0zm15.009338 3.640625l0 -1.859375l4.40625 0l0 -16.90625l-4.40625 0l0 -1.859375l7.09375 0l0 20.625l-7.09375 0z" fill-rule="nonzero"/><path fill="#eeeeee" d="m306.09973 362.04724l106.64566 0l0 48.472443l-106.64566 0z" fill-rule="evenodd"/><path stroke="#6aa84f" stroke-width="8.0" stroke-linejoin="round" stroke-linecap="butt" d="m306.09973 362.04724l106.64566 0l0 48.472443l-106.64566 0z" fill-rule="evenodd"/><path fill="#000000" d="m319.8966 397.72787l0 -20.625l7.109375 0l0 1.859375l-4.421875 0l0 16.90625l4.421875 0l0 1.859375l-7.109375 0zm11.493713 -3.640625l0 -2.859375l4.109375 0l0 -8.796875l-3.390625 0l0 -2.1875q1.03125 -0.171875 1.78125 -0.34375q0.765625 -0.1875 1.359375 -0.4375q0.609375 -0.25 1.1875 -0.609375l2.59375 0l0 12.375l3.453125 0l0 2.859375l-11.09375 0zm19.712463 0.28125q-1.75 0 -3.078125 -0.921875q-1.3125 -0.921875 -2.046875 -2.6875q-0.734375 -1.78125 -0.734375 -4.359375q0 -3.90625 1.609375 -5.875q1.609375 -1.96875 4.25 -1.96875q2.65625 0 4.25 1.96875q1.609375 1.96875 1.609375 5.875q0 2.578125 -0.734375 4.359375q-0.734375 1.765625 -2.046875 2.6875q-1.3125 0.921875 -3.078125 0.921875zm0 -2.734375q0.765625 0 1.375 -0.46875q0.609375 -0.484375 0.96875 -1.640625q0.359375 -1.15625 0.359375 -3.125q0 -1.984375 -0.359375 -3.09375q-0.359375 -1.125 -0.96875 -1.5625q-0.609375 -0.453125 -1.375 -0.453125q-0.75 0 -1.375 0.453125q-0.625 0.4375 -0.984375 1.5625q-0.359375 1.109375 -0.359375 3.09375q0 1.96875 0.359375 3.125q0.359375 1.15625 0.984375 1.640625q0.625 0.46875 1.375 0.46875zm0 -3.453125q-0.75 0 -1.28125 -0.5q-0.515625 -0.5 -0.515625 -1.328125q0 -0.828125 0.515625 -1.3125q0.53125 -0.5 1.28125 -0.5q0.765625 0 1.28125 0.5q0.515625 0.484375 0.515625 1.3125q0 0.828125 -0.515625 1.328125q-0.515625 0.5 -1.28125 0.5zm9.087463 5.90625l0 -2.859375l4.109375 0l0 -8.796875l-3.390625 0l0 -2.1875q1.03125 -0.171875 1.78125 -0.34375q0.765625 -0.1875 1.359375 -0.4375q0.609375 -0.25 1.1875 -0.609375l2.59375 0l0 12.375l3.453125 0l0 2.859375l-11.09375 0zm14.399963 0l0 -2.859375l4.109375 0l0 -8.796875l-3.390625 0l0 -2.1875q1.03125 -0.171875 1.78125 -0.34375q0.765625 -0.1875 1.359375 -0.4375q0.609375 -0.25 1.1875 -0.609375l2.59375 0l0 12.375l3.453125 0l0 2.859375l-11.09375 0zm15.009338 3.640625l0 -1.859375l4.40625 0l0 -16.90625l-4.40625 0l0 -1.859375l7.09375 0l0 20.625l-7.09375 0z" fill-rule="nonzero"/><path fill="#eeeeee" d="m554.6011 362.0551l106.64563 0l0 48.472443l-106.64563 0z" fill-rule="evenodd"/><path stroke="#cc0000" stroke-width="3.0" stroke-linejoin="round" stroke-linecap="butt" d="m554.6011 362.0551l106.64563 0l0 48.472443l-106.64563 0z" fill-rule="evenodd"/><path fill="#000000" d="m568.39795 397.73575l0 -20.625l7.109375 0l0 1.859375l-4.421875 0l0 16.90625l4.421875 0l0 1.859375l-7.109375 0zm11.493713 -3.640625l0 -2.859375l4.109375 0l0 -8.796875l-3.390625 0l0 -2.1875q1.03125 -0.171875 1.78125 -0.34375q0.765625 -0.1875 1.359375 -0.4375q0.609375 -0.25 1.1875 -0.609375l2.59375 0l0 12.375l3.453125 0l0 2.859375l-11.09375 0zm14.399963 0l0 -2.859375l4.109375 0l0 -8.796875l-3.390625 0l0 -2.1875q1.03125 -0.171875 1.78125 -0.34375q0.765625 -0.1875 1.359375 -0.4375q0.609375 -0.25 1.1875 -0.609375l2.59375 0l0 12.375l3.453125 0l0 2.859375l-11.09375 0zm19.712463 0.28125q-1.75 0 -3.078125 -0.921875q-1.3125 -0.921875 -2.046875 -2.6875q-0.734375 -1.78125 -0.734375 -4.359375q0 -3.90625 1.609375 -5.875q1.609375 -1.96875 4.25 -1.96875q2.65625 0 4.25 1.96875q1.609375 1.96875 1.609375 5.875q0 2.578125 -0.734375 4.359375q-0.734375 1.765625 -2.046875 2.6875q-1.3125 0.921875 -3.078125 0.921875zm0 -2.734375q0.765625 0 1.375 -0.46875q0.609375 -0.484375 0.96875 -1.640625q0.359375 -1.15625 0.359375 -3.125q0 -1.984375 -0.359375 -3.09375q-0.359375 -1.125 -0.96875 -1.5625q-0.609375 -0.453125 -1.375 -0.453125q-0.75 0 -1.375 0.453125q-0.625 0.4375 -0.984375 1.5625q-0.359375 1.109375 -0.359375 3.09375q0 1.96875 0.359375 3.125q0.359375 1.15625 0.984375 1.640625q0.625 0.46875 1.375 0.46875zm0 -3.453125q-0.75 0 -1.28125 -0.5q-0.515625 -0.5 -0.515625 -1.328125q0 -0.828125 0.515625 -1.3125q0.53125 -0.5 1.28125 -0.5q0.765625 0 1.28125 0.5q0.515625 0.484375 0.515625 1.3125q0 0.828125 -0.515625 1.328125q-0.515625 0.5 -1.28125 0.5zm9.087463 5.90625l0 -2.859375l4.109375 0l0 -8.796875l-3.390625 0l0 -2.1875q1.03125 -0.171875 1.78125 -0.34375q0.765625 -0.1875 1.359375 -0.4375q0.609375 -0.25 1.1875 -0.609375l2.59375 0l0 12.375l3.453125 0l0 2.859375l-11.09375 0zm15.009338 3.640625l0 -1.859375l4.40625 0l0 -16.90625l-4.40625 0l0 -1.859375l7.09375 0l0 20.625l-7.09375 0z" fill-rule="nonzero"/><path fill="#eeeeee" d="m719.9134 362.0551l106.64569 0l0 48.472443l-106.64569 0z" fill-rule="evenodd"/><path fill="#999999" d="m733.71027 397.73575l0 -20.625l7.109375 0l0 1.859375l-4.421875 0l0 16.90625l4.421875 0l0 1.859375l-7.109375 0zm11.493713 -3.640625l0 -2.859375l4.109375 0l0 -8.796875l-3.390625 0l0 -2.1875q1.03125 -0.171875 1.78125 -0.34375q0.765625 -0.1875 1.359375 -0.4375q0.609375 -0.25 1.1875 -0.609375l2.59375 0l0 12.375l3.453125 0l0 2.859375l-11.09375 0zm14.399963 0l0 -2.859375l4.109375 0l0 -8.796875l-3.390625 0l0 -2.1875q1.03125 -0.171875 1.78125 -0.34375q0.765625 -0.1875 1.359375 -0.4375q0.609375 -0.25 1.1875 -0.609375l2.59375 0l0 12.375l3.453125 0l0 2.859375l-11.09375 0zm14.399963 0l0 -2.859375l4.109375 0l0 -8.796875l-3.390625 0l0 -2.1875q1.03125 -0.171875 1.78125 -0.34375q0.765625 -0.1875 1.359375 -0.4375q0.609375 -0.25 1.1875 -0.609375l2.59375 0l0 12.375l3.453125 0l0 2.859375l-11.09375 0zm19.712463 0.28125q-1.75 0 -3.078125 -0.921875q-1.3125 -0.921875 -2.046875 -2.6875q-0.734375 -1.78125 -0.734375 -4.359375q0 -3.90625 1.609375 -5.875q1.609375 -1.96875 4.25 -1.96875q2.65625 0 4.25 1.96875q1.609375 1.96875 1.609375 5.875q0 2.578125 -0.734375 4.359375q-0.734375 1.765625 -2.046875 2.6875q-1.3125 0.921875 -3.078125 0.921875zm0 -2.734375q0.765625 0 1.375 -0.46875q0.609375 -0.484375 0.96875 -1.640625q0.359375 -1.15625 0.359375 -3.125q0 -1.984375 -0.359375 -3.09375q-0.359375 -1.125 -0.96875 -1.5625q-0.609375 -0.453125 -1.375 -0.453125q-0.75 0 -1.375 0.453125q-0.625 0.4375 -0.984375 1.5625q-0.359375 1.109375 -0.359375 3.09375q0 1.96875 0.359375 3.125q0.359375 1.15625 0.984375 1.640625q0.625 0.46875 1.375 0.46875zm0 -3.453125q-0.75 0 -1.28125 -0.5q-0.515625 -0.5 -0.515625 -1.328125q0 -0.828125 0.515625 -1.3125q0.53125 -0.5 1.28125 -0.5q0.765625 0 1.28125 0.5q0.515625 0.484375 0.515625 1.3125q0 0.828125 -0.515625 1.328125q-0.515625 0.5 -1.28125 0.5zm9.696838 9.546875l0 -1.859375l4.40625 0l0 -16.90625l-4.40625 0l0 -1.859375l7.09375 0l0 20.625l-7.09375 0z" fill-rule="nonzero"/><path fill="#eeeeee" d="m442.67715 473.48032l106.64566 0l0 48.472443l-106.64566 0z" fill-rule="evenodd"/><path stroke="#cc0000" stroke-width="3.0" stroke-linejoin="round" stroke-linecap="butt" d="m442.67715 473.48032l106.64566 0l0 48.472443l-106.64566 0z" fill-rule="evenodd"/><path fill="#000000" d="m456.47403 509.16095l0 -20.625l7.109375 0l0 1.859375l-4.421875 0l0 16.90625l4.421875 0l0 1.859375l-7.109375 0zm11.493713 -3.640625l0 -2.859375l4.109375 0l0 -8.796875l-3.390625 0l0 -2.1875q1.03125 -0.171875 1.78125 -0.34375q0.765625 -0.1875 1.359375 -0.4375q0.609375 -0.25 1.1875 -0.609375l2.59375 0l0 12.375l3.453125 0l0 2.859375l-11.09375 0zm14.399963 0l0 -2.859375l4.109375 0l0 -8.796875l-3.390625 0l0 -2.1875q1.03125 -0.171875 1.78125 -0.34375q0.765625 -0.1875 1.359375 -0.4375q0.609375 -0.25 1.1875 -0.609375l2.59375 0l0 12.375l3.453125 0l0 2.859375l-11.09375 0zm14.399963 0l0 -2.859375l4.109375 0l0 -8.796875l-3.390625 0l0 -2.1875q1.03125 -0.171875 1.78125 -0.34375q0.765625 -0.1875 1.359375 -0.4375q0.609375 -0.25 1.1875 -0.609375l2.59375 0l0 12.375l3.453125 0l0 2.859375l-11.09375 0zm14.399963 0l0 -2.859375l4.1094055 0l0 -8.796875l-3.3906555 0l0 -2.1875q1.0312805 -0.171875 1.7812805 -0.34375q0.765625 -0.1875 1.359375 -0.4375q0.609375 -0.25 1.1875 -0.609375l2.59375 0l0 12.375l3.453125 0l0 2.859375l-11.0937805 0zm15.009369 3.640625l0 -1.859375l4.40625 0l0 -16.90625l-4.40625 0l0 -1.859375l7.09375 0l0 20.625l-7.09375 0z" fill-rule="nonzero"/><path fill="#000000" fill-opacity="0.0" d="m229.72966 169.71129c0 16.931839 -25.228348 25.399109 -50.456696 33.863678c-25.228348 8.464569 -50.456696 16.926437 -50.456696 33.85286" fill-rule="evenodd"/><path stroke="#cc0000" stroke-width="1.0" stroke-linejoin="round" stroke-linecap="butt" d="m229.72966 169.71129c0 16.931839 -25.228348 25.399109 -50.456696 33.863678c-12.614166 4.2322845 -25.228348 8.463898 -34.68898 13.753235c-4.730316 2.6446686 -8.672241 5.553772 -11.431595 8.859604c-1.3796692 1.6529083 -2.4636993 3.4050293 -3.2028046 5.2728424l-0.026824951 0.07008362" fill-rule="evenodd"/><path fill="#cc0000" stroke="#cc0000" stroke-width="1.0" stroke-linecap="butt" d="m128.29936 231.22612l0.7865143 4.7648773l2.4602814 -4.15567z" fill-rule="evenodd"/><path fill="#000000" fill-opacity="0.0" d="m229.72966 169.71129c0 16.931839 8.417328 25.399109 16.83464 33.863678c8.417328 8.464569 16.834656 16.926437 16.834656 33.85286" fill-rule="evenodd"/><path stroke="#cc0000" stroke-width="1.0" stroke-linejoin="round" stroke-linecap="butt" d="m229.72966 169.71129c0 16.931839 8.417328 25.399109 16.83464 33.863678c4.208664 4.2322845 8.417328 8.463898 11.573822 13.753235c1.5782471 2.6446686 2.8934631 5.553772 3.814087 8.859604c0.23016357 0.8264618 0.43566895 1.6777191 0.6144409 2.555832c0.089416504 0.43907166 0.17211914 0.88482666 0.24789429 1.3375854c0.037902832 0.2263794 0.074035645 0.4544983 0.108428955 0.6843872l0.094940186 0.67433167" fill-rule="evenodd"/><path fill="#cc0000" stroke="#cc0000" stroke-width="1.0" stroke-linecap="butt" d="m261.3695 231.54483l1.936615 4.4240417l1.360199 -4.633835z" fill-rule="evenodd"/><path fill="#000000" fill-opacity="0.0" d="m399.42258 169.70341c0 16.933624 -67.64566 25.398727 -135.29135 33.867233c-67.64566 8.468506 -135.29134 16.9404 -135.29134 33.8808" fill-rule="evenodd"/><path stroke="#595959" stroke-width="1.0" stroke-linejoin="round" stroke-linecap="butt" stroke-dasharray="1.0,3.0" d="m399.42258 169.70341c0 16.933624 -67.64566 25.398743 -135.29135 33.86725c-33.82283 4.234253 -67.64566 8.469345 -93.01279 13.763428c-12.683563 2.647049 -23.253204 5.558838 -30.651947 8.867645c-3.6993713 1.6544037 -6.606018 3.4080505 -8.587814 5.2774963c-0.12388611 0.11683655 -0.24412537 0.23413086 -0.36073303 0.35186768l-0.16659546 0.17126465" fill-rule="evenodd"/><path fill="#595959" stroke="#595959" stroke-width="1.0" stroke-linecap="butt" d="m129.85127 231.31097l-0.39945984 4.81279l3.3996124 -3.4300385z" fill-rule="evenodd"/><path fill="#000000" fill-opacity="0.0" d="m399.42258 169.70341c0 16.933624 6.13385 25.398727 12.2677 33.867233c6.1338806 8.468506 12.267731 16.9404 12.267731 33.8808" fill-rule="evenodd"/><path stroke="#595959" stroke-width="1.0" stroke-linejoin="round" stroke-linecap="butt" stroke-dasharray="1.0,3.0" d="m399.42258 169.70341c0 16.933624 6.13385 25.398743 12.2677 33.86725c3.0669556 4.234253 6.1338806 8.469345 8.4340515 13.763428c1.150116 2.647049 2.1085205 5.558838 2.779419 8.867645c0.16772461 0.8271942 0.31747437 1.6792145 0.4477539 2.5581055c0.06515503 0.43945312 0.12539673 0.88560486 0.18066406 1.3387451c0.02758789 0.22657776 0.053955078 0.45489502 0.07901001 0.68499756l0.0690918 0.67430115" fill-rule="evenodd"/><path fill="#595959" stroke="#595959" stroke-width="1.0" stroke-linecap="butt" d="m422.0303 231.53433l1.8600464 4.456772l1.4398804 -4.60968z" fill-rule="evenodd"/><path fill="#000000" fill-opacity="0.0" d="m607.9239 169.71129c0 16.931839 -86.12598 25.399109 -172.25198 33.863678c-86.12598 8.464569 -172.25195 16.926437 -172.25195 33.85286" fill-rule="evenodd"/><path stroke="#595959" stroke-width="1.0" stroke-linejoin="round" stroke-linecap="butt" stroke-dasharray="1.0,3.0" d="m607.9239 169.71129c0 16.931839 -86.12598 25.399109 -172.25198 33.863678c-43.06299 4.2322845 -86.12598 8.463898 -118.42322 13.753235c-16.14862 2.6446686 -29.605804 5.553772 -39.02585 8.859604c-4.7099915 1.6529083 -8.410736 3.4050293 -10.93396 5.2728424c-0.31539917 0.23347473 -0.61239624 0.46878052 -0.8906555 0.7059021l-0.03668213 0.031845093" fill-rule="evenodd"/><path fill="#595959" stroke="#595959" stroke-width="1.0" stroke-linecap="butt" d="m264.92194 231.3886l-0.7852783 4.7650757l3.6644897 -3.1455078z" fill-rule="evenodd"/><path fill="#000000" fill-opacity="0.0" d="m399.42258 169.70341c0 16.933624 84.055115 25.398727 168.11026 33.867233c84.055115 8.468506 168.11023 16.9404 168.11023 33.8808" fill-rule="evenodd"/><path stroke="#595959" stroke-width="1.0" stroke-linejoin="round" stroke-linecap="butt" stroke-dasharray="1.0,3.0" d="m399.42258 169.70341c0 16.933624 84.055115 25.398743 168.11026 33.86725c42.027527 4.234253 84.055115 8.469345 115.575745 13.763428c15.760376 2.647049 28.893982 5.558838 38.087463 8.867645c4.5967407 1.6544037 8.208557 3.4080505 10.671082 5.2774963c0.3078003 0.2336731 0.59765625 0.469162 0.8692627 0.70648193l0.011657715 0.010360718" fill-rule="evenodd"/><path fill="#595959" stroke="#595959" stroke-width="1.0" stroke-linecap="butt" d="m731.3013 232.99304l3.6364136 3.1779327l-0.7429199 -4.771866z" fill-rule="evenodd"/><path fill="#000000" fill-opacity="0.0" d="m607.9239 169.71129c0 16.931839 -45.992126 25.399109 -91.98425 33.863678c-45.992126 8.464569 -91.98425 16.926437 -91.98425 33.85286" fill-rule="evenodd"/><path stroke="#595959" stroke-width="1.0" stroke-linejoin="round" stroke-linecap="butt" stroke-dasharray="1.0,3.0" d="m607.9239 169.71129c0 16.931839 -45.992126 25.399109 -91.98425 33.863678c-22.996063 4.2322845 -45.992126 8.463898 -63.239166 13.753235c-8.623535 2.6446686 -15.809814 5.553772 -20.84018 8.859604c-2.5152283 1.6529083 -4.491455 3.4050293 -5.8388367 5.2728424l-0.18756104 0.26882935" fill-rule="evenodd"/><path fill="#595959" stroke="#595959" stroke-width="1.0" stroke-linecap="butt" d="m424.26523 231.21234l0.14785767 4.827072l2.989502 -3.792801z" fill-rule="evenodd"/><path fill="#000000" fill-opacity="0.0" d="m607.9239 169.71129c0 16.931839 65.88977 25.399109 131.77954 33.863678c65.88977 8.464569 131.77948 16.926437 131.77948 33.85286" fill-rule="evenodd"/><path stroke="#595959" stroke-width="1.0" stroke-linejoin="round" stroke-linecap="butt" stroke-dasharray="1.0,3.0" d="m607.9239 169.71129c0 16.931839 65.88977 25.399109 131.77954 33.863678c32.944885 4.2322845 65.88977 8.463898 90.59839 13.753235c12.35437 2.6446686 22.649597 5.553772 29.856323 8.859604c3.6033325 1.6529083 6.4345703 3.4050293 8.364929 5.2728424c0.12060547 0.116744995 0.23773193 0.2339325 0.3513794 0.35159302l0.13946533 0.14712524" fill-rule="evenodd"/><path fill="#595959" stroke="#595959" stroke-width="1.0" stroke-linecap="butt" d="m867.50854 232.63904l3.3728027 3.4563904l-0.3619995 -4.81575z" fill-rule="evenodd"/><path fill="#000000" fill-opacity="0.0" d="m773.2362 169.71129c0 16.931839 24.559082 25.399109 49.118103 33.863678c24.559082 8.464569 49.118103 16.926437 49.118103 33.85286" fill-rule="evenodd"/><path stroke="#595959" stroke-width="1.0" stroke-linejoin="round" stroke-linecap="butt" stroke-dasharray="1.0,3.0" d="m773.2362 169.71129c0 16.931839 24.559082 25.399109 49.118103 33.863678c12.279541 4.2322845 24.559082 8.463898 33.768738 13.753235c4.6047974 2.6446686 8.442139 5.553772 11.128296 8.859604c1.3430786 1.6529083 2.3983154 3.4050293 3.117859 5.2728424l0.024169922 0.06500244" fill-rule="evenodd"/><path fill="#595959" stroke="#595959" stroke-width="1.0" stroke-linecap="butt" d="m868.7686 231.8227l2.440918 4.1670685l0.8086548 -4.761154z" fill-rule="evenodd"/><path fill="#000000" fill-opacity="0.0" d="m773.2362 169.71129c0 16.931839 -9.40155 25.399109 -18.803162 33.863678c-9.40155 8.464569 -18.8031 16.926437 -18.8031 33.85286" fill-rule="evenodd"/><path stroke="#595959" stroke-width="1.0" stroke-linejoin="round" stroke-linecap="butt" stroke-dasharray="1.0,3.0" d="m773.2362 169.71129c0 16.931839 -9.40155 25.399109 -18.803162 33.863678c-4.7007446 4.2322845 -9.40155 8.463898 -12.927124 13.753235c-1.7628174 2.6446686 -3.2318115 5.553772 -4.260132 8.859604c-0.25701904 0.8264618 -0.48657227 1.6777191 -0.68621826 2.555832c-0.09991455 0.43907166 -0.19226074 0.88482666 -0.2769165 1.3375854c-0.0423584 0.2263794 -0.08270264 0.4544983 -0.121154785 0.6843872l-0.10644531 0.6772766" fill-rule="evenodd"/><path fill="#595959" stroke="#595959" stroke-width="1.0" stroke-linecap="butt" d="m734.4075 231.32587l1.3260498 4.6437225l1.9691162 -4.4096527z" fill-rule="evenodd"/><path fill="#000000" fill-opacity="0.0" d="m773.2362 169.71129c0 16.931839 -49.362183 25.399109 -98.724365 33.863678c-49.362244 8.464569 -98.72443 16.926437 -98.72443 33.85286" fill-rule="evenodd"/><path stroke="#595959" stroke-width="1.0" stroke-linejoin="round" stroke-linecap="butt" stroke-dasharray="1.0,3.0" d="m773.2362 169.71129c0 16.931839 -49.362183 25.399109 -98.724365 33.863678c-24.681152 4.2322845 -49.362244 8.463898 -67.87305 13.753235c-9.255432 2.6446686 -16.968262 5.553772 -22.367249 8.859604c-2.699524 1.6529083 -4.8205566 3.4050293 -6.2667236 5.2728424l-0.22918701 0.3061676" fill-rule="evenodd"/><path fill="#595959" stroke="#595959" stroke-width="1.0" stroke-linecap="butt" d="m576.2172 231.21948l0.054626465 4.8290405l3.0621948 -3.734375z" fill-rule="evenodd"/><path fill="#000000" fill-opacity="0.0" d="m128.83202 285.91077c0 19.03595 15.228348 28.552185 30.456696 38.07187c15.228348 9.519684 30.456696 19.042816 30.456696 38.0856" fill-rule="evenodd"/><path stroke="#595959" stroke-width="1.0" stroke-linejoin="round" stroke-linecap="butt" stroke-dasharray="1.0,3.0" d="m128.83202 285.91077c0 19.03595 15.228348 28.552216 30.456696 38.0719c7.6141815 4.7598267 15.228348 9.520538 20.93898 15.471619c2.8553162 2.9755554 5.234741 6.2486877 6.900345 9.968109c0.8327942 1.8597107 1.4871368 3.8310242 1.9332733 5.932434c0.027893066 0.13134766 0.054977417 0.2632141 0.081222534 0.39556885l0.06542969 0.34194946" fill-rule="evenodd"/><path fill="#595959" stroke="#595959" stroke-width="1.0" stroke-linecap="butt" d="m187.56287 356.24033l2.05159 4.371887l1.2386017 -4.667816z" fill-rule="evenodd"/><path fill="#000000" fill-opacity="0.0" d="m128.83202 285.91077c0 19.03415 57.645676 28.552582 115.291336 38.06833c57.64569 9.515747 115.29135 19.028809 115.29135 38.057648" fill-rule="evenodd"/><path stroke="#595959" stroke-width="1.0" stroke-linejoin="round" stroke-linecap="butt" stroke-dasharray="1.0,3.0" d="m128.83202 285.91077c0 19.03415 57.645676 28.552582 115.291336 38.06833c28.822845 4.7578735 57.64569 9.515076 79.26282 15.461426c10.808563 2.9731445 19.815674 6.243622 26.120667 9.960083c3.1525269 1.8582153 5.629486 3.827942 7.3182983 5.9277954c0.2111206 0.2624817 0.4099121 0.52700806 0.5961609 0.7935791c0.046539307 0.06661987 0.09234619 0.13339233 0.13735962 0.20031738l0.004760742 0.007232666" fill-rule="evenodd"/><path fill="#595959" stroke="#595959" stroke-width="1.0" stroke-linecap="butt" d="m355.99225 356.83914l2.9713745 3.8070374l0.17089844 -4.8263245z" fill-rule="evenodd"/><path fill="#000000" fill-opacity="0.0" d="m263.40945 285.91077c0 19.03595 -18.417328 28.552185 -36.834656 38.07187c-18.417313 9.519684 -36.83464 19.042816 -36.83464 38.0856" fill-rule="evenodd"/><path stroke="#595959" stroke-width="1.0" stroke-linejoin="round" stroke-linecap="butt" stroke-dasharray="1.0,3.0" d="m263.40945 285.91077c0 19.03595 -18.417328 28.552216 -36.834656 38.0719c-9.208664 4.7598267 -18.417313 9.520538 -25.323807 15.471619c-3.4532623 2.9755554 -6.330963 6.2486877 -8.345352 9.968109c-1.0072021 1.8597107 -1.7985687 3.8310242 -2.3381348 5.932434c-0.033737183 0.13134766 -0.066482544 0.2632141 -0.098220825 0.39556885l-0.0816803 0.35287476" fill-rule="evenodd"/><path fill="#595959" stroke="#595959" stroke-width="1.0" stroke-linecap="butt" d="m188.74553 355.92505l1.1523895 4.6898193l2.1317902 -4.3333435z" fill-rule="evenodd"/><path fill="#000000" fill-opacity="0.0" d="m263.40945 285.91077c0 19.03595 86.12598 28.552185 172.25195 38.07187c86.12601 9.519684 172.25198 19.042816 172.25198 38.0856" fill-rule="evenodd"/><path stroke="#595959" stroke-width="1.0" stroke-linejoin="round" stroke-linecap="butt" stroke-dasharray="1.0,3.0" d="m263.40945 285.91077c0 19.03595 86.12598 28.552216 172.25195 38.0719c43.06299 4.7598267 86.12601 9.520538 118.42325 15.471619c16.14862 2.9755554 29.605774 6.2486877 39.025818 9.968109c4.710022 1.8597107 8.410767 3.8310242 10.93396 5.932434c0.3154297 0.2626953 0.61242676 0.5274048 0.89068604 0.79418945c0.13916016 0.13339233 0.2736206 0.26733398 0.4033203 0.40176392l0.064331055 0.067993164" fill-rule="evenodd"/><path fill="#595959" stroke="#595959" stroke-width="1.0" stroke-linecap="butt" d="m603.9026 357.3099l3.399109 3.4305725l-0.39874268 -4.812866z" fill-rule="evenodd"/><path fill="#000000" fill-opacity="0.0" d="m423.95013 285.91077c0 19.03595 -58.551178 28.552185 -117.102356 38.07187c-58.551193 9.519684 -117.10237 19.042816 -117.10237 38.0856" fill-rule="evenodd"/><path stroke="#595959" stroke-width="1.0" stroke-linejoin="round" stroke-linecap="butt" stroke-dasharray="1.0,3.0" d="m423.95013 285.91077c0 19.03595 -58.551178 28.552216 -117.102356 38.0719c-29.275604 4.7598267 -58.551193 9.520538 -80.50789 15.471619c-10.978348 2.9755554 -20.126968 6.2486877 -26.531006 9.968109c-3.202011 1.8597107 -5.7178802 3.8310242 -7.433243 5.932434c-0.21443176 0.2626953 -0.41635132 0.5274048 -0.6055298 0.79418945c-0.047286987 0.066711426 -0.09378052 0.13354492 -0.13949585 0.20046997l-0.012374878 0.018554688" fill-rule="evenodd"/><path fill="#595959" stroke="#595959" stroke-width="1.0" stroke-linecap="butt" d="m190.04903 355.85245l0.1526947 4.826935l2.9857178 -3.795807z" fill-rule="evenodd"/><path fill="#000000" fill-opacity="0.0" d="m423.95013 285.91077c0 19.03595 45.992126 28.552185 91.98425 38.07187c45.992126 9.519684 91.98425 19.042816 91.98425 38.0856" fill-rule="evenodd"/><path stroke="#595959" stroke-width="1.0" stroke-linejoin="round" stroke-linecap="butt" stroke-dasharray="1.0,3.0" d="m423.95013 285.91077c0 19.03595 45.992126 28.552216 91.98425 38.0719c22.996033 4.7598267 45.992126 9.520538 63.239197 15.471619c8.623474 2.9755554 15.809753 6.2486877 20.840149 9.968109c2.5151978 1.8597107 4.491455 3.8310242 5.838806 5.932434c0.16845703 0.2626953 0.3270874 0.5274048 0.47564697 0.79418945l0.06274414 0.11697388" fill-rule="evenodd"/><path fill="#595959" stroke="#595959" stroke-width="1.0" stroke-linecap="butt" d="m604.79364 356.68655l2.7527466 3.9679565l0.4418335 -4.809082z" fill-rule="evenodd"/><path fill="#000000" fill-opacity="0.0" d="m575.79266 285.91077c0 19.03595 8.031494 28.552185 16.062988 38.07187c8.031494 9.519684 16.062988 19.042816 16.062988 38.0856" fill-rule="evenodd"/><path stroke="#cc0000" stroke-width="1.0" stroke-linejoin="round" stroke-linecap="butt" d="m575.79266 285.91077c0 19.03595 8.031494 28.552216 16.062988 38.0719c4.015747 4.7598267 8.031494 9.520538 11.043274 15.471619c1.5059204 2.9755554 2.7608643 6.2486877 3.6392822 9.968109c0.43920898 1.8597107 0.7843628 3.8310242 1.0195923 5.932434l0.07537842 0.72021484" fill-rule="evenodd"/><path fill="#cc0000" stroke="#cc0000" stroke-width="1.0" stroke-linecap="butt" d="m605.9833 356.15363l1.8657837 4.454376l1.43396 -4.6115417z" fill-rule="evenodd"/><path fill="#000000" fill-opacity="0.0" d="m735.6352 285.91077c0 19.03415 -94.055115 28.552582 -188.11023 38.06833c-94.055145 9.515747 -188.11026 19.028809 -188.11026 38.057648" fill-rule="evenodd"/><path stroke="#595959" stroke-width="1.0" stroke-linejoin="round" stroke-linecap="butt" stroke-dasharray="1.0,3.0" d="m735.6352 285.91077c0 19.03415 -94.055115 28.552582 -188.11023 38.06833c-47.027588 4.7578735 -94.055145 9.515076 -129.3258 15.461426c-17.635345 2.9731445 -32.33145 6.243622 -42.618744 9.960083c-5.1436462 1.8582153 -9.185059 3.827942 -11.940582 5.9277954c-0.3444214 0.2624817 -0.6687927 0.52700806 -0.97268677 0.7935791c-0.1519165 0.13327026 -0.2987976 0.26708984 -0.44049072 0.4013977l-0.14385986 0.13922119" fill-rule="evenodd"/><path fill="#595959" stroke="#595959" stroke-width="1.0" stroke-linecap="butt" d="m360.60336 355.92813l-0.5385742 4.7991943l3.4974365 -3.3302002z" fill-rule="evenodd"/><path fill="#000000" fill-opacity="0.0" d="m735.6352 285.91077c0 19.03595 9.40155 28.552185 18.8031 38.07187c9.401611 9.519684 18.803162 19.042816 18.803162 38.0856" fill-rule="evenodd"/><path stroke="#595959" stroke-width="1.0" stroke-linejoin="round" stroke-linecap="butt" stroke-dasharray="1.0,3.0" d="m735.6352 285.91077c0 19.03595 9.40155 28.552216 18.8031 38.0719c4.7008057 4.7598267 9.401611 9.520538 12.927185 15.471619c1.7628174 2.9755554 3.2318115 6.2486877 4.260071 9.968109c0.5142212 1.8597107 0.91815186 3.8310242 1.1936035 5.932434l0.08850098 0.7227173" fill-rule="evenodd"/><path fill="#595959" stroke="#595959" stroke-width="1.0" stroke-linecap="butt" d="m771.2584 356.16943l1.9016724 4.4391785l1.3966675 -4.622986z" fill-rule="evenodd"/><path fill="#000000" fill-opacity="0.0" d="m871.47766 285.91077c0 19.03595 -24.559021 28.552185 -49.118103 38.07187c-24.559021 9.519684 -49.118103 19.042816 -49.118103 38.0856" fill-rule="evenodd"/><path stroke="#595959" stroke-width="1.0" stroke-linejoin="round" stroke-linecap="butt" stroke-dasharray="1.0,3.0" d="m871.47766 285.91077c0 19.03595 -24.559021 28.552216 -49.118103 38.0719c-12.27948 4.7598267 -24.559021 9.520538 -33.768677 15.471619c-4.6047974 2.9755554 -8.4422 6.2486877 -11.128296 9.968109c-1.3430786 1.8597107 -2.3983765 3.8310242 -3.117859 5.932434c-0.045043945 0.13134766 -0.08868408 0.2632141 -0.13098145 0.39556885l-0.11694336 0.37911987" fill-rule="evenodd"/><path fill="#595959" stroke="#595959" stroke-width="1.0" stroke-linecap="butt" d="m772.46185 355.89407l0.9879761 4.7272034l2.2817993 -4.256317z" fill-rule="evenodd"/><path fill="#000000" fill-opacity="0.0" d="m871.47766 285.91077c0 19.03595 -65.88971 28.552185 -131.77948 38.07187c-65.88977 9.519684 -131.77954 19.042816 -131.77954 38.0856" fill-rule="evenodd"/><path stroke="#595959" stroke-width="1.0" stroke-linejoin="round" stroke-linecap="butt" stroke-dasharray="1.0,3.0" d="m871.47766 285.91077c0 19.03595 -65.88971 28.552216 -131.77948 38.0719c-32.944885 4.7598267 -65.88977 9.520538 -90.59845 15.471619c-12.354309 2.9755554 -22.649597 6.2486877 -29.856323 9.968109c-3.6033325 1.8597107 -6.4345093 3.8310242 -8.364868 5.932434c-0.24133301 0.2626953 -0.46850586 0.5274048 -0.6813965 0.79418945c-0.053222656 0.066711426 -0.10559082 0.13354492 -0.15698242 0.20046997l-0.06262207 0.083099365" fill-rule="evenodd"/><path fill="#595959" stroke="#595959" stroke-width="1.0" stroke-linecap="butt" d="m608.42615 355.86578l-0.005859375 4.829315l3.1087036 -3.6957397z" fill-rule="evenodd"/><path fill="#000000" fill-opacity="0.0" d="m607.9239 410.52756c0 15.738281 -27.984253 23.606445 -55.968506 31.476532c-27.984253 7.8700867 -55.968506 15.742065 -55.968506 31.4841" fill-rule="evenodd"/><path stroke="#595959" stroke-width="1.0" stroke-linejoin="round" stroke-linecap="butt" stroke-dasharray="1.0,3.0" d="m607.9239 410.52756c0 15.738281 -27.984253 23.606476 -55.968506 31.476532c-13.992126 3.9350586 -27.984253 7.870575 -38.478333 12.79007c-5.2470703 2.4597473 -9.619598 5.165497 -12.680389 8.240204c-0.76516724 0.76867676 -1.4483948 1.5604248 -2.0428162 2.3771057c-0.29714966 0.40838623 -0.5721741 0.822937 -0.8240967 1.2440491c-0.12594604 0.21054077 -0.24615479 0.42269897 -0.36047363 0.6365051c-0.05718994 0.106933594 -0.112854004 0.21426392 -0.16708374 0.32199097l-0.018981934 0.038909912" fill-rule="evenodd"/><path fill="#595959" stroke="#595959" stroke-width="1.0" stroke-linecap="butt" d="m495.77682 467.26852l0.55026245 4.7979126l2.6624756 -4.029114z" fill-rule="evenodd"/><path fill="#000000" fill-opacity="0.0" d="m773.2362 410.52756c0 15.738281 -69.30707 23.606445 -138.61414 31.476532c-69.30713 7.8700867 -138.6142 15.742065 -138.6142 31.4841" fill-rule="evenodd"/><path stroke="#595959" stroke-width="1.0" stroke-linejoin="round" stroke-linecap="butt" stroke-dasharray="1.0,3.0" d="m773.2362 410.52756c0 15.738281 -69.30707 23.606476 -138.61414 31.476532c-34.653564 3.9350586 -69.30713 7.870575 -95.29724 12.79007c-12.995117 2.4597473 -23.82434 5.165497 -31.404785 8.240204c-3.7902527 1.537323 -6.7683105 3.1669312 -8.798767 4.904114c-0.063446045 0.054260254 -0.12600708 0.108673096 -0.18759155 0.16314697l-0.10253906 0.092315674" fill-rule="evenodd"/><path fill="#595959" stroke="#595959" stroke-width="1.0" stroke-linecap="butt" d="m497.37372 467.41672l-0.677948 4.7815247l3.5928345 -3.2270813z" fill-rule="evenodd"/><path fill="#000000" fill-opacity="0.0" d="m189.72966 410.52756c0 15.738281 76.56694 23.606445 153.13387 31.476532c76.566925 7.8700867 153.13385 15.742065 153.13385 31.4841" fill-rule="evenodd"/><path stroke="#595959" stroke-width="1.0" stroke-linejoin="round" stroke-linecap="butt" stroke-dasharray="1.0,3.0" d="m189.72966 410.52756c0 15.738281 76.56694 23.606476 153.13387 31.476532c38.283447 3.9350586 76.566925 7.870575 105.27951 12.79007c14.356293 2.4597473 26.319885 5.165497 34.694397 8.240204c4.187256 1.537323 7.477234 3.1669312 9.720398 4.904114c0.14019775 0.108551025 0.27633667 0.21755981 0.40829468 0.32699585l0.031402588 0.026489258" fill-rule="evenodd"/><path fill="#595959" stroke="#595959" stroke-width="1.0" stroke-linecap="butt" d="m491.56708 469.11777l3.6993713 3.10437l-0.83843994 -4.756012z" fill-rule="evenodd"/><path fill="#9900ff" d="m903.59845 232.34236l14.36438 9.1552734E-5l4.4387207 -13.161346l4.4387817 13.161346l14.36438 -9.1552734E-5l-11.621094 8.134064l4.438904 13.161285l-11.620972 -8.134216l-11.620911 8.134216l4.438904 -13.161285z" fill-rule="evenodd"/><path stroke="#9900ff" stroke-width="1.0" stroke-linejoin="round" stroke-linecap="butt" d="m903.59845 232.34236l14.36438 9.1552734E-5l4.4387207 -13.161346l4.4387817 13.161346l14.36438 -9.1552734E-5l-11.621094 8.134064l4.438904 13.161285l-11.620972 -8.134216l-11.620911 8.134216l4.438904 -13.161285z" fill-rule="evenodd"/><path fill="#000000" fill-opacity="0.0" d="m575.79266 285.91077c0 19.03415 -54.094482 28.552582 -108.188995 38.06833c-54.094482 9.515747 -108.188965 19.028809 -108.188965 38.057648" fill-rule="evenodd"/><path stroke="#6aa84f" stroke-width="4.0" stroke-linejoin="round" stroke-linecap="butt" d="m575.79266 285.91077c0 19.03415 -54.094482 28.552582 -108.188995 38.06833c-27.047241 4.7578735 -54.094482 9.515076 -74.37991 15.461426c-5.07135 1.4865723 -9.720093 3.0474854 -13.840607 4.701294c-0.51504517 0.20672607 -1.0218506 0.414917 -1.5202026 0.6246033c-0.24914551 0.10479736 -0.49621582 0.20999146 -0.7411499 0.3156128l-0.5039673 0.2199707" fill-rule="evenodd"/><path fill="#6aa84f" stroke="#6aa84f" stroke-width="4.0" stroke-linecap="butt" d="m372.01096 340.56616l-8.404694 17.393158l17.61847 -7.921509z" fill-rule="evenodd"/><path fill="#000000" fill-opacity="0.0" d="m229.72966 169.71129c0 16.931839 86.51967 25.399109 173.03938 33.863678c86.519684 8.464569 173.03937 16.926437 173.03937 33.85286" fill-rule="evenodd"/><path stroke="#6aa84f" stroke-width="4.0" stroke-linejoin="round" stroke-linecap="butt" d="m229.72966 169.71129c0 16.931839 86.51967 25.399109 173.03938 33.863678c43.259827 4.2322845 86.519684 8.463898 118.96454 13.753235c8.111206 1.3223267 15.546509 2.710785 22.136902 4.1818695c3.295166 0.73553467 6.3790894 1.4917297 9.230713 2.270691c0.7128906 0.1947174 1.4112549 0.39086914 2.0948486 0.58847046l0.40026855 0.11746216" fill-rule="evenodd"/><path fill="#6aa84f" stroke="#6aa84f" stroke-width="4.0" stroke-linecap="butt" d="m552.0338 230.05084l18.849915 4.2238617l-11.7248535 -15.352173z" fill-rule="evenodd"/><path fill="#000000" fill-opacity="0.0" d="m359.42258 410.51968c0 15.740173 34.141724 23.61023 68.28345 31.480316c34.141754 7.8700867 68.28348 15.740143 68.28348 31.480316" fill-rule="evenodd"/><path stroke="#cc0000" stroke-width="1.0" stroke-linejoin="round" stroke-linecap="butt" d="m359.42258 410.51968c0 15.740173 34.141724 23.61023 68.28345 31.480316c17.070892 3.935028 34.141754 7.8700867 46.944885 12.788879c6.401581 2.4594116 11.736237 5.164734 15.4704895 8.239014c0.93356323 0.76852417 1.7670898 1.5601501 2.492279 2.37677c0.36257935 0.40829468 0.6980896 0.82281494 1.0054626 1.2438354c0.153656 0.21054077 0.3003235 0.42266846 0.43978882 0.6364441c0.06976318 0.106903076 0.13772583 0.21420288 0.20385742 0.32192993l0.06442261 0.108306885" fill-rule="evenodd"/><path fill="#cc0000" stroke="#cc0000" stroke-width="1.0" stroke-linecap="butt" d="m492.74014 468.1728l2.8443298 3.902832l0.32983398 -4.818054z" fill-rule="evenodd"/><path fill="#000000" fill-opacity="0.0" d="m36.897636 55.737534l0 437.10236" fill-rule="evenodd"/><path stroke="#000000" stroke-width="8.0" stroke-linejoin="round" stroke-linecap="butt" d="m36.897636 55.737534l0 389.10236" fill-rule="evenodd"/><path fill="#000000" stroke="#000000" stroke-width="8.0" stroke-linecap="butt" d="m23.683779 444.8399l13.213858 36.30478l13.21386 -36.30478z" fill-rule="evenodd"/></g></svg>